<svg width="1280" height="720" xmlns="http://www.w3.org/2000/svg" xmlns:xlink="http://www.w3.org/1999/xlink" overflow="hidden"><defs><clipPath id="clip0"><rect x="0" y="0" width="1280" height="720"/></clipPath></defs><g clip-path="url(#clip0)"><rect x="0" y="0" width="1280" height="720" fill="#FFFFFF"/><path d="M16.5001 41.6669C16.5001 32.1859 24.1859 24.5001 33.6669 24.5001L314.333 24.5001C323.814 24.5001 331.5 32.1859 331.5 41.6669L331.5 110.333C331.5 119.814 323.814 127.5 314.333 127.5L33.6669 127.5C24.1859 127.5 16.5001 119.814 16.5001 110.333Z" stroke="#2F528F" stroke-width="1.33333" stroke-miterlimit="8" fill="#4472C4" fill-rule="evenodd"/><text fill="#FFFFFF" font-family="Calibri,Calibri_MSFontService,sans-serif" font-weight="400" font-size="24" transform="translate(39.305 68)">ProfinetDataSourceAdapter<tspan x="21.8" y="29">Underlying</tspan><tspan x="134.133" y="29">levels</tspan><tspan x="194.447" y="29">chain</tspan></text><path d="M483.5 41.6671C483.5 32.186 491.186 24.5001 500.667 24.5001L780.333 24.5001C789.814 24.5001 797.5 32.186 797.5 41.6671L797.5 110.333C797.5 119.814 789.814 127.5 780.333 127.5L500.667 127.5C491.186 127.5 483.5 119.814 483.5 110.333Z" stroke="#2F528F" stroke-width="1.33333" stroke-miterlimit="8" fill="#4472C4" fill-rule="evenodd"/><text fill="#FFFFFF" font-family="Calibri,Calibri_MSFontService,sans-serif" font-weight="400" font-size="24" transform="translate(544.94 83)">ProfinetDataSource</text><path d="M949.5 41.6669C949.5 32.1859 957.186 24.5001 966.667 24.5001L1247.33 24.5001C1256.81 24.5001 1264.5 32.1859 1264.5 41.6669L1264.5 110.333C1264.5 119.814 1256.81 127.5 1247.33 127.5L966.667 127.5C957.186 127.5 949.5 119.814 949.5 110.333Z" stroke="#2F528F" stroke-width="1.33333" stroke-miterlimit="8" fill="#4472C4" fill-rule="evenodd"/><text fill="#FFFFFF" font-family="Calibri,Calibri_MSFontService,sans-serif" font-weight="400" font-size="24" transform="translate(974.465 68)">MemoryMapSynchNMutex<tspan x="28.6" y="29">[</tspan><tspan x="35.9333" y="29">Input,Output</tspan><tspan x="163.767" y="29">]Broker</tspan></text><path d="M174.5 159.5 174.5 690.978" stroke="#4472C4" stroke-width="0.666667" stroke-miterlimit="8" fill="none" fill-rule="evenodd"/><path d="M640.5 154.5 640.5 685.978" stroke="#4472C4" stroke-width="0.666667" stroke-miterlimit="8" fill="none" fill-rule="evenodd"/><path d="M1106.5 159.5 1106.5 690.978" stroke="#4472C4" stroke-width="0.666667" stroke-miterlimit="8" fill="none" fill-rule="evenodd"/><rect x="156.5" y="159.5" width="35" height="34" stroke="#2F528F" stroke-width="1.33333" stroke-miterlimit="8" fill="#4472C4"/><rect x="623.5" y="193.5" width="34" height="109" stroke="#2F528F" stroke-width="1.33333" stroke-miterlimit="8" fill="#4472C4"/><path d="M191.513 176.167 616.387 193.29 616.361 193.956 191.487 176.833ZM615.203 189.572 623.036 193.891 614.881 197.566Z" fill="#4472C4"/><text font-family="Calibri,Calibri_MSFontService,sans-serif" font-weight="400" font-size="19" transform="translate(218.064 170)">Cyclic<tspan x="46.76" y="0">event triggers I/O update with </tspan>NotifyCycle()</text><rect x="156.5" y="362.5" width="35" height="35" stroke="#2F528F" stroke-width="1.33333" stroke-miterlimit="8" fill="#4472C4"/><rect x="625.5" y="397.5" width="35" height="108" stroke="#2F528F" stroke-width="1.33333" stroke-miterlimit="8" fill="#4472C4"/><path d="M191.516 379.167 616.393 399.115 616.362 399.781 191.484 379.833ZM615.232 395.39 623.036 399.76 614.857 403.381Z" fill="#4472C4"/><rect x="156.5" y="557.5" width="35" height="35" stroke="#2F528F" stroke-width="1.33333" stroke-miterlimit="8" fill="#4472C4"/><rect x="625.5" y="600.5" width="35" height="108" stroke="#2F528F" stroke-width="1.33333" stroke-miterlimit="8" fill="#4472C4"/><path d="M191.519 575.167 616.399 599.825 616.361 600.49 191.481 575.833ZM615.281 596.087 623.036 600.544 614.817 604.074Z" fill="#4472C4"/><text font-family="Calibri,Calibri_MSFontService,sans-serif" font-weight="400" font-size="19" transform="translate(283.687 253)">Bank <tspan x="41.6667" y="0">is</tspan><tspan x="57.5" y="0">Fast </tspan><tspan x="92.1267" y="0">Locked</tspan><tspan x="144.693" y="0">, </tspan><tspan x="153.527" y="0">Profinet</tspan><tspan x="218.793" y="0">side can </tspan>wait<tspan x="0" y="23">Mutex</tspan><tspan x="53.3533" y="23">is</tspan><tspan x="69.1867" y="23">taken</tspan><tspan x="115.527" y="23">and </tspan>released<tspan x="217.28" y="23">in the </tspan><tspan x="265.28" y="23">same</tspan><tspan x="0" y="45">call</tspan></text><rect x="1086.5" y="197.5" width="35" height="35" stroke="#507E32" stroke-width="1.33333" stroke-miterlimit="8" fill="#70AD47"/><path d="M117.833 210.167 117.833 353.368 117.167 353.368 117.167 210.167ZM113.5 211.5 117.5 203.5 121.5 211.5ZM121.5 352.034 117.5 360.034 113.5 352.034Z" fill="#4472C4"/><path d="M117.833 408.167 117.833 551.368 117.167 551.368 117.167 408.167ZM113.5 409.5 117.5 401.5 121.5 409.5ZM121.5 550.034 117.5 558.034 113.5 550.034Z" fill="#4472C4"/><text font-family="Calibri,Calibri_MSFontService,sans-serif" font-weight="400" font-size="19" transform="translate(53.547 276)">Cycle<tspan x="0" y="23">time</tspan><tspan x="0.349083" y="183">Cycle</tspan><tspan x="0.349083" y="206">time</tspan></text><rect x="623.5" y="315.5" width="34" height="67" stroke="#507E32" stroke-width="1.33333" stroke-miterlimit="8" fill="#70AD47"/><path d="M0.0764791-0.324441 420.02 98.6669 419.867 99.3158-0.0764791 0.324441ZM419.562 94.7918 426.431 100.521 417.726 102.578Z" fill="#4472C4" transform="matrix(-1 0 0 1 1086.93 214.5)"/><rect x="1085.5" y="398.5" width="35" height="35" stroke="#507E32" stroke-width="1.33333" stroke-miterlimit="8" fill="#70AD47"/><rect x="624.5" y="516.5" width="34" height="67" stroke="#507E32" stroke-width="1.33333" stroke-miterlimit="8" fill="#70AD47"/><path d="M0.076479-0.324441 420.021 98.6671 419.868 99.316-0.076479 0.324441ZM419.562 94.7918 426.431 100.521 417.727 102.578Z" fill="#4472C4" transform="matrix(-1 0 0 1 1084.93 415.5)"/><text font-family="Calibri,Calibri_MSFontService,sans-serif" font-weight="400" font-size="19" transform="translate(742.934 609)">MARTe<tspan x="57.8267" y="0">must </tspan>keep<tspan x="140.687" y="0">RT performance. </tspan><tspan x="270.947" y="0">Only</tspan><tspan x="0" y="23">TryLock</tspan><tspan x="57.1" y="23">() </tspan>is<tspan x="88.4333" y="23">attempted</tspan><tspan x="168.68" y="23">. </tspan><tspan x="177.513" y="23">Stale</tspan><tspan x="218.953" y="23">data </tspan><tspan x="256.887" y="23">if</tspan><tspan x="0" y="45">TryLock</tspan><tspan x="57.1" y="45">() </tspan>returns<tspan x="132.087" y="45">false. Broker </tspan>needs<tspan x="280.153" y="45">to </tspan><tspan x="0" y="68">release </tspan><tspan x="59.0867" y="68">mutex</tspan><tspan x="107.107" y="68">. </tspan><tspan x="115.94" y="68">Only</tspan><tspan x="155.107" y="68">a </tspan><tspan x="168.273" y="68">successful</tspan><tspan x="0" y="90">Lock/Release </tspan><tspan x="103.84" y="90">result</tspan><tspan x="151.427" y="90">in data update.</tspan><tspan x="-17.0439" y="-394">TryLock</tspan><tspan x="44.2228" y="-394">triggered</tspan><tspan x="117.996" y="-394">by </tspan><tspan x="-17.0439" y="-371">Synchonise</tspan><tspan x="67.8961" y="-371">[</tspan><tspan x="73.5628" y="-371">Input,Output</tspan>]</text><rect x="1089.5" y="253.5" width="34" height="34" stroke="#507E32" stroke-width="1.33333" stroke-miterlimit="8" fill="#70AD47"/><path d="M0.0841352-0.32254 422.262 109.803 422.094 110.448-0.0841352 0.32254ZM421.896 105.918 428.628 111.808 419.877 113.659Z" fill="#4472C4" transform="matrix(-1 0 0 1 1089.13 270.5)"/><text font-family="Calibri,Calibri_MSFontService,sans-serif" font-weight="400" font-size="19" transform="translate(718.47 382)">UnLock<tspan x="60" y="0">triggered</tspan><tspan x="133.773" y="0">by </tspan><tspan x="0" y="23">Terminate[</tspan><tspan x="82.3" y="23">Input,Output</tspan>]Copy</text><rect x="1086.5" y="457.5" width="35" height="35" stroke="#507E32" stroke-width="1.33333" stroke-miterlimit="8" fill="#70AD47"/><path d="M0.0821966-0.32304 420.053 106.537 419.889 107.183-0.0821966 0.32304ZM419.664 102.655 426.431 108.504 417.692 110.408Z" fill="#4472C4" transform="matrix(-1 0 0 1 1086.93 474.5)"/></g></svg>