<svg width="1280" height="720" xmlns="http://www.w3.org/2000/svg" xmlns:xlink="http://www.w3.org/1999/xlink" overflow="hidden"><defs><clipPath id="clip0"><rect x="0" y="0" width="1280" height="720"/></clipPath></defs><g clip-path="url(#clip0)"><rect x="0" y="0" width="1280" height="720" fill="#FFFFFF"/><path d="M314.5 28.6669C314.5 19.1859 322.186 11.5001 331.667 11.5001L612.333 11.5001C621.814 11.5001 629.5 19.1859 629.5 28.6669L629.5 97.3332C629.5 106.814 621.814 114.5 612.333 114.5L331.667 114.5C322.186 114.5 314.5 106.814 314.5 97.3332Z" stroke="#2F528F" stroke-width="1.33333" stroke-miterlimit="8" fill="#4472C4" fill-rule="evenodd"/><text fill="#FFFFFF" font-family="Calibri,Calibri_MSFontService,sans-serif" font-weight="400" font-size="24" transform="translate(337.276 70)">ProfinetDataSourceAdapter</text><path d="M27.5001 28.667C27.5001 19.186 35.1859 11.5001 44.667 11.5001L174.333 11.5001C183.814 11.5001 191.5 19.186 191.5 28.667L191.5 97.3331C191.5 106.814 183.814 114.5 174.333 114.5L44.667 114.5C35.1859 114.5 27.5001 106.814 27.5001 97.3331Z" stroke="#787878" stroke-width="1.33333" stroke-miterlimit="8" fill="#A5A5A5" fill-rule="evenodd"/><text fill="#FFFFFF" font-family="Calibri,Calibri_MSFontService,sans-serif" font-weight="400" font-size="24" transform="translate(68.9595 56)">RT-<tspan x="31.7667" y="0">LABS</tspan><tspan x="-25.5933" y="29">P</tspan><tspan x="-13.26" y="29">-</tspan><tspan x="-5.92667" y="29">NET Library</tspan></text><path d="M686.5 305.5C686.5 298.873 691.873 293.5 698.5 293.5L995.5 293.5C1002.13 293.5 1007.5 298.873 1007.5 305.5L1007.5 353.5C1007.5 360.127 1002.13 365.5 995.5 365.5L698.5 365.5C691.873 365.5 686.5 360.127 686.5 353.5Z" stroke="#AE5A21" stroke-width="1.33333" stroke-miterlimit="8" fill="#ED7D31" fill-rule="evenodd"/><text fill="#FFFFFF" font-family="Calibri,Calibri_MSFontService,sans-serif" font-weight="400" font-size="24" transform="translate(764.202 337)">ITimerEntryPoint</text><path d="M354.5 305.5C354.5 298.873 359.873 293.5 366.5 293.5L663.5 293.5C670.127 293.5 675.5 298.873 675.5 305.5L675.5 353.5C675.5 360.127 670.127 365.5 663.5 365.5L366.5 365.5C359.873 365.5 354.5 360.127 354.5 353.5Z" stroke="#AE5A21" stroke-width="1.33333" stroke-miterlimit="8" fill="#ED7D31" fill-rule="evenodd"/><text fill="#FFFFFF" font-family="Calibri,Calibri_MSFontService,sans-serif" font-weight="400" font-size="24" transform="translate(401.228 337)">IMainThreadEntryPoint</text><path d="M354.5 194.667C354.5 185.186 362.186 177.5 371.667 177.5L989.333 177.5C998.814 177.5 1006.5 185.186 1006.5 194.667L1006.5 263.333C1006.5 272.814 998.814 280.5 989.333 280.5L371.667 280.5C362.186 280.5 354.5 272.814 354.5 263.333Z" stroke="#2F528F" stroke-width="1.33333" stroke-miterlimit="8" fill="#4472C4" fill-rule="evenodd"/><text fill="#FFFFFF" font-family="Calibri,Calibri_MSFontService,sans-serif" font-weight="400" font-size="24" transform="translate(585.288 236)">ProfinetDataSource</text><path d="M358.5 578.667C358.5 569.186 366.186 561.5 375.667 561.5L655.333 561.5C664.814 561.5 672.5 569.186 672.5 578.667L672.5 647.333C672.5 656.814 664.814 664.5 655.333 664.5L375.667 664.5C366.186 664.5 358.5 656.814 358.5 647.333Z" stroke="#2F528F" stroke-width="1.33333" stroke-miterlimit="8" fill="#4472C4" fill-rule="evenodd"/><text fill="#FFFFFF" font-family="Calibri,Calibri_MSFontService,sans-serif" font-weight="400" font-size="24" transform="translate(383.529 620)">ProfinetMainThreadHelper</text><path d="M695.5 578.667C695.5 569.186 703.186 561.5 712.667 561.5L992.333 561.5C1001.81 561.5 1009.5 569.186 1009.5 578.667L1009.5 647.333C1009.5 656.814 1001.81 664.5 992.333 664.5L712.667 664.5C703.186 664.5 695.5 656.814 695.5 647.333Z" stroke="#2F528F" stroke-width="1.33333" stroke-miterlimit="8" fill="#4472C4" fill-rule="evenodd"/><text fill="#FFFFFF" font-family="Calibri,Calibri_MSFontService,sans-serif" font-weight="400" font-size="24" transform="translate(751.604 620)">ProfinetTimerHelper</text><path d="M518.736 561.264 610.022 652.55 609.55 653.022 518.264 561.736ZM611.672 649.015 614.5 657.5 606.015 654.672Z" fill="#4472C4"/><path d="M515.445 561.612 515.176 372.167 515.843 372.167 516.111 561.611ZM511.511 373.506 515.5 365.5 519.511 373.494Z" fill="#4472C4"/><path d="M851.546 561.621 846.35 372.173 847.016 372.155 852.212 561.603ZM842.721 373.607 846.5 365.5 850.718 373.387Z" fill="#4472C4"/><text font-family="Calibri,Calibri_MSFontService,sans-serif" font-weight="400" font-size="19" transform="translate(862.854 431)">Calls <tspan x="39.1667" y="0">cyclically</tspan><tspan x="109.773" y="0">TimerTick</tspan>() on the DataSource<tspan x="339.767" y="0">.</tspan><tspan x="0" y="23">The call triggers the Timer event </tspan><tspan x="248.933" y="23">which</tspan><tspan x="298.267" y="23">is</tspan><tspan x="314.1" y="23">handled</tspan><tspan x="380.267" y="23">to</tspan><tspan x="0" y="45">achieve</tspan><tspan x="62.06" y="45">Profinet</tspan><tspan x="127.327" y="45">cyclic</tspan><tspan x="171.92" y="45">data </tspan><tspan x="209.853" y="45">exchange</tspan>.<tspan x="0" y="68">The </tspan>TimerTick<tspan x="110.667" y="68">is</tspan><tspan x="126.5" y="68">the </tspan><tspan x="156.167" y="68">only</tspan><tspan x="192.833" y="68">event </tspan>generated<tspan x="321.48" y="68">from the </tspan><tspan x="0" y="90">DataSource</tspan><tspan x="91.16" y="90">side.</tspan><tspan x="-824.223" y="-34">The </tspan><tspan font-weight="700" x="-791.723" y="-34">MainThread</tspan><tspan x="-693.263" y="-34">keeps</tspan><tspan x="-645.456" y="-34">the event flag </tspan><tspan x="-824.223" y="-11">and </tspan>awaits<tspan x="-738.223" y="-11">for </tspan><tspan x="-712.45" y="-11">various</tspan><tspan x="-653.223" y="-11">Profinet</tspan><tspan x="-587.956" y="-11">events to </tspan><tspan x="-824.223" y="11">be </tspan>raised. Once an event is<tspan x="-616.716" y="11">available</tspan>, the <tspan x="-824.223" y="34">MainThread</tspan><tspan x="-727.47" y="34">calls the </tspan>corresponding<tspan x="-824.223" y="56">function</tspan><tspan x="-756.556" y="56">on the </tspan>ProfinetDataSource.<tspan x="-824.223" y="78">When</tspan><tspan x="-774.39" y="78">the </tspan>MainThread<tspan x="-647.97" y="78">returns</tspan><tspan x="-588.483" y="78">worked</tspan><tspan x="-824.223" y="101">flags, the </tspan>helper<tspan x="-697.223" y="101">clears</tspan><tspan x="-649.043" y="101">them</tspan><tspan x="-604.543" y="101">from the </tspan><tspan x="-824.223" y="123">global event and </tspan>awaits<tspan x="-640.836" y="123">another</tspan><tspan x="-576.003" y="123">event </tspan><tspan x="-824.223" y="146">to be </tspan>raised.<tspan font-weight="700" x="-725.95" y="146">Operational</tspan><tspan font-weight="700" x="-629.536" y="146">Signals</tspan><tspan x="-824.223" y="168">interface</tspan><tspan x="-752.63" y="168">transfers the </tspan>direct<tspan x="-604.216" y="168">LED/Ready </tspan><tspan x="-824.223" y="190">Profinet</tspan><tspan x="-758.956" y="190">signals</tspan><tspan x="-703.79" y="190">to the </tspan>DataSource<tspan x="-566.976" y="190">.</tspan></text><path d="M651.5 104.667C651.5 97.9474 656.947 92.5001 663.667 92.5001L960.333 92.5001C967.053 92.5001 972.5 97.9474 972.5 104.667L972.5 153.333C972.5 160.053 967.053 165.5 960.333 165.5L663.667 165.5C656.947 165.5 651.5 160.053 651.5 153.333Z" stroke="#2F528F" stroke-width="1.33333" stroke-miterlimit="8" fill="#4472C4" fill-rule="evenodd"/><text fill="#FFFFFF" font-family="Calibri,Calibri_MSFontService,sans-serif" font-weight="400" font-size="24" transform="translate(694.18 136)">IProfinetEventNotifiable</text><path d="M629.5 63.1667 812.464 63.1667 812.464 86.2297 811.797 86.2297 811.797 63.5001 812.13 63.8334 629.5 63.8334ZM816.13 84.8964 812.13 92.8964 808.13 84.8964Z" fill="#4472C4"/><text font-family="Calibri,Calibri_MSFontService,sans-serif" font-weight="400" font-size="19" transform="translate(821.1 31)">Events <tspan x="53.8733" y="0">raising</tspan><tspan x="107.827" y="0">from the library are </tspan>routed<tspan x="315.16" y="0">to the </tspan><tspan x="0" y="23">DataSource</tspan><tspan x="91.16" y="23">first and to the </tspan><tspan x="207.62" y="23">MainThreadHelper</tspan><tspan x="355.373" y="23">next</tspan><tspan x="388.813" y="23">.</tspan></text><path d="M198.167 63.1667 308.242 63.1668 308.242 63.8335 198.167 63.8334ZM199.5 67.5001 191.5 63.5001 199.5 59.5001ZM306.908 59.5002 314.908 63.5002 306.908 67.5002Z" fill="#4472C4"/><text font-family="Calibri,Calibri_MSFontService,sans-serif" font-weight="400" font-size="19" transform="translate(36.266 140)">Cyclics<tspan x="54.0933" y="0">and more </tspan><tspan x="131.347" y="0">generic</tspan><tspan x="191.36" y="0">event </tspan><tspan x="0" y="23">handling</tspan><tspan x="70" y="23">result</tspan><tspan x="117.587" y="23">in bi</tspan>-directional<tspan x="0" y="45">calls </tspan><tspan x="36.8467" y="45">between</tspan><tspan x="108.08" y="45">adapter</tspan><tspan x="171.8" y="45">and </tspan><tspan x="0" y="68">underlying</tspan><tspan x="85.3333" y="68">library. The </tspan>DataSource<tspan x="0" y="90">uses</tspan><tspan x="38" y="90">directly</tspan><tspan x="98.92" y="90">the </tspan>adapter<tspan x="192.307" y="90">to handle </tspan><tspan x="0" y="112">everything</tspan>.</text><path d="M0 0.333333-57.3901 0.333333-57.0568 0-57.0568 260.923-57.3901 260.589 457.365 260.589 457.031 260.923 457.031 243.589 457.698 243.589 457.698 261.256-57.7235 261.256-57.7235-0.333333 0-0.333333ZM453.365 244.922 457.365 236.922 461.365 244.922Z" fill="#4472C4" transform="matrix(-1 0 0 1 972.865 128.5)"/><path d="M681.1 177.594 478.788 116.74 478.98 116.101 681.292 176.956ZM479.009 120.635 472.5 114.5 481.313 112.974Z" fill="#4472C4"/><text font-family="Calibri,Calibri_MSFontService,sans-serif" font-weight="400" font-size="19" transform="translate(282.487 694)">MainThread<tspan x="96.7533" y="0">and Timer </tspan><tspan x="177.92" y="0">helpers</tspan><tspan x="238.267" y="0">are </tspan><tspan x="267.02" y="0">both</tspan><tspan font-weight="700" x="307.02" y="0">EmbeddedServiceMethodBinderT</tspan><tspan font-weight="700" x="568.06" y="0">&lt;T&gt;</tspan><tspan x="600.06" y="0">implementations</tspan><tspan x="729.153" y="0">.</tspan></text><path d="M22.5001 305.667C22.5001 298.947 27.9474 293.5 34.6671 293.5L331.333 293.5C338.053 293.5 343.5 298.947 343.5 305.667L343.5 354.333C343.5 361.053 338.053 366.5 331.333 366.5L34.6671 366.5C27.9474 366.5 22.5001 361.053 22.5001 354.333Z" stroke="#2F528F" stroke-width="1.33333" stroke-miterlimit="8" fill="#4472C4" fill-rule="evenodd"/><text fill="#FFFFFF" font-family="Calibri,Calibri_MSFontService,sans-serif" font-weight="400" font-size="24" transform="translate(37.464 337)">IOperationalSignalsEntryPoint</text><path d="M0.17569-0.283274 283.622 175.514 283.27 176.08-0.17569 0.283274ZM284.421 171.695 289.112 179.311 280.205 178.494Z" fill="#4472C4" transform="matrix(-1 0 0 1 472.612 114.5)"/></g></svg>