<svg width="1280" height="720" xmlns="http://www.w3.org/2000/svg" xmlns:xlink="http://www.w3.org/1999/xlink" overflow="hidden"><defs><clipPath id="clip0"><rect x="0" y="0" width="1280" height="720"/></clipPath></defs><g clip-path="url(#clip0)"><rect x="0" y="0" width="1280" height="720" fill="#FFFFFF"/><path d="M602.5 214C602.5 200.469 613.469 189.5 627 189.5L725 189.5C738.531 189.5 749.5 200.469 749.5 214L749.5 633C749.5 646.531 738.531 657.5 725 657.5L627 657.5C613.469 657.5 602.5 646.531 602.5 633Z" stroke="#2F528F" stroke-width="1.33333" stroke-miterlimit="8" fill="#4472C4" fill-rule="evenodd"/><text fill="#FFFFFF" font-family="Calibri,Calibri_MSFontService,sans-serif" font-weight="400" font-size="24" transform="translate(633.668 416)">Memory<tspan x="17.8066" y="29">Bank</tspan></text><path d="M27.5001 137.667C27.5001 128.186 35.186 120.5 44.667 120.5L324.333 120.5C333.814 120.5 341.5 128.186 341.5 137.667L341.5 206.333C341.5 215.814 333.814 223.5 324.333 223.5L44.667 223.5C35.186 223.5 27.5001 215.814 27.5001 206.333Z" stroke="#2F528F" stroke-width="1.33333" stroke-miterlimit="8" fill="#4472C4" fill-rule="evenodd"/><text fill="#FFFFFF" font-family="Calibri,Calibri_MSFontService,sans-serif" font-weight="400" font-size="24" transform="translate(49.5067 179)">ProfinetDataSourceAdapter</text><path d="M27.5001 28.6671C27.5001 19.186 35.186 11.5001 44.667 11.5001L324.333 11.5001C333.814 11.5001 341.5 19.186 341.5 28.6671L341.5 97.333C341.5 106.814 333.814 114.5 324.333 114.5L44.667 114.5C35.186 114.5 27.5001 106.814 27.5001 97.333Z" stroke="#787878" stroke-width="1.33333" stroke-miterlimit="8" fill="#A5A5A5" fill-rule="evenodd"/><text fill="#FFFFFF" font-family="Calibri,Calibri_MSFontService,sans-serif" font-weight="400" font-size="24" transform="translate(144.003 56)">RT-<tspan x="31.7667" y="0">LABS</tspan><tspan x="-25.6" y="29">P</tspan><tspan x="-13.2667" y="29">-</tspan><tspan x="-5.93333" y="29">NET Library</tspan></text><path d="M480.5 228.834C480.5 215.395 491.395 204.5 504.834 204.5L602.166 204.5C615.605 204.5 626.5 215.395 626.5 228.834L626.5 384.166C626.5 397.605 615.605 408.5 602.166 408.5L504.834 408.5C491.395 408.5 480.5 397.605 480.5 384.166Z" stroke="#BC8C00" stroke-width="1.33333" stroke-miterlimit="8" fill="#FFC000" fill-rule="evenodd"/><text fill="#FFFFFF" font-family="Calibri,Calibri_MSFontService,sans-serif" font-weight="400" font-size="24" transform="translate(528.377 314)">Slot1</text><path d="M480.5 448.834C480.5 435.395 491.395 424.5 504.834 424.5L602.166 424.5C615.605 424.5 626.5 435.395 626.5 448.834L626.5 604.166C626.5 617.605 615.605 628.5 602.166 628.5L504.834 628.5C491.395 628.5 480.5 617.605 480.5 604.166Z" stroke="#BC8C00" stroke-width="1.33333" stroke-miterlimit="8" fill="#FFC000" fill-rule="evenodd"/><text fill="#FFFFFF" font-family="Calibri,Calibri_MSFontService,sans-serif" font-weight="400" font-size="24" transform="translate(526.71 533)">SlotN</text><path d="M374.5 236.334C374.5 229.246 380.246 223.5 387.334 223.5L507.666 223.5C514.754 223.5 520.5 229.246 520.5 236.334L520.5 287.666C520.5 294.754 514.754 300.5 507.666 300.5L387.334 300.5C380.246 300.5 374.5 294.754 374.5 287.666Z" stroke="#AE5A21" stroke-width="1.33333" stroke-miterlimit="8" fill="#ED7D31" fill-rule="evenodd"/><text fill="#FFFFFF" font-family="Calibri,Calibri_MSFontService,sans-serif" font-weight="400" font-size="24" transform="translate(404.9 269)">Subslot1</text><path d="M374.5 326.5C374.5 319.32 380.32 313.5 387.5 313.5L507.5 313.5C514.68 313.5 520.5 319.32 520.5 326.5L520.5 378.5C520.5 385.68 514.68 391.5 507.5 391.5L387.5 391.5C380.32 391.5 374.5 385.68 374.5 378.5Z" stroke="#AE5A21" stroke-width="1.33333" stroke-miterlimit="8" fill="#ED7D31" fill-rule="evenodd"/><text fill="#FFFFFF" font-family="Calibri,Calibri_MSFontService,sans-serif" font-weight="400" font-size="24" transform="translate(403.233 359)">SubslotN</text><path d="M374.5 456.5C374.5 449.32 380.32 443.5 387.5 443.5L507.5 443.5C514.68 443.5 520.5 449.32 520.5 456.5L520.5 508.5C520.5 515.68 514.68 521.5 507.5 521.5L387.5 521.5C380.32 521.5 374.5 515.68 374.5 508.5Z" stroke="#AE5A21" stroke-width="1.33333" stroke-miterlimit="8" fill="#ED7D31" fill-rule="evenodd"/><text fill="#FFFFFF" font-family="Calibri,Calibri_MSFontService,sans-serif" font-weight="400" font-size="24" transform="translate(404.9 489)">Subslot1</text><path d="M374.5 546.5C374.5 539.32 380.32 533.5 387.5 533.5L507.5 533.5C514.68 533.5 520.5 539.32 520.5 546.5L520.5 598.5C520.5 605.68 514.68 611.5 507.5 611.5L387.5 611.5C380.32 611.5 374.5 605.68 374.5 598.5Z" stroke="#AE5A21" stroke-width="1.33333" stroke-miterlimit="8" fill="#ED7D31" fill-rule="evenodd"/><text fill="#FFFFFF" font-family="Calibri,Calibri_MSFontService,sans-serif" font-weight="400" font-size="24" transform="translate(403.233 580)">SubslotN</text><path d="M939.5 34.6671C939.5 25.186 947.186 17.5001 956.667 17.5001L1236.33 17.5001C1245.81 17.5001 1253.5 25.186 1253.5 34.6671L1253.5 103.333C1253.5 112.814 1245.81 120.5 1236.33 120.5L956.667 120.5C947.186 120.5 939.5 112.814 939.5 103.333Z" stroke="#2F528F" stroke-width="1.33333" stroke-miterlimit="8" fill="#4472C4" fill-rule="evenodd"/><text fill="#FFFFFF" font-family="Calibri,Calibri_MSFontService,sans-serif" font-weight="400" font-size="24" transform="translate(1001.06 76)">ProfinetDataSource</text><path d="M341.5 171.167 447.573 171.167 447.573 216.284 446.906 216.284 446.906 171.5 447.239 171.833 341.5 171.833ZM451.239 214.951 447.239 222.951 443.239 214.951Z" fill="#4472C4"/><text font-family="Calibri,Calibri_MSFontService,sans-serif" font-weight="400" font-size="19" transform="translate(36.266 267)">Profinet<tspan x="65.2667" y="0">sees</tspan><tspan x="102.767" y="0">its</tspan><tspan x="124.933" y="0">bank </tspan><tspan x="166.267" y="0">half</tspan><tspan x="199.267" y="0">splitted</tspan><tspan x="260.633" y="0">in </tspan><tspan x="0" y="23">slots/</tspan>subslots<tspan x="104.053" y="23">. </tspan><tspan x="112.887" y="23">Each</tspan><tspan x="152.58" y="23">subslot</tspan><tspan x="211.487" y="23">is</tspan><tspan x="0" y="45">configured</tspan><tspan x="85.4933" y="45">as</tspan><tspan x="105.993" y="45">an offset from the bank </tspan><tspan x="0" y="68">start. The </tspan>Profinet<tspan x="141.667" y="68">side </tspan>half<tspan x="209.667" y="68">is</tspan><tspan x="225.5" y="68">located</tspan><tspan x="0" y="90">at</tspan><tspan x="19.3267" y="90">offset 0 of the </tspan>whole<tspan x="180.967" y="90">bank.</tspan><tspan x="0" y="112">Profinet</tspan><tspan x="65.2667" y="112">is</tspan><tspan x="81.1" y="112">agnostic</tspan><tspan x="148.393" y="112">on the </tspan>transported<tspan x="0" y="135">data </tspan>representation, data <tspan x="197.3" y="135">is</tspan><tspan x="213.133" y="135">moved</tspan><tspan x="269.373" y="135">in </tspan><tspan x="0" y="157">subslot</tspan><tspan x="58.9067" y="157">units</tspan>.<tspan x="420.174" y="-234">Memory for input (</tspan>same<tspan x="609.874" y="-234">for outputs) </tspan>is<tspan x="420.174" y="-211">allocated</tspan><tspan x="493.647" y="-211">in a single </tspan>contiguous<tspan x="660.987" y="-211">heap </tspan>block<tspan x="420.174" y="-189">twice</tspan><tspan x="465.507" y="-189">as</tspan><tspan x="486.007" y="-189">big, </tspan>referred<tspan x="584.087" y="-189">to </tspan><tspan x="604.241" y="-189">as</tspan><tspan x="624.741" y="-189">«bank».</tspan><tspan x="420.174" y="-166">Same</tspan><tspan x="466.007" y="-166">memory</tspan><tspan x="534.101" y="-166">bank </tspan>has<tspan x="605.767" y="-166">two</tspan><tspan x="639.26" y="-166">«</tspan>perspectives» <tspan x="420.174" y="-144">on </tspan><tspan x="444.007" y="-144">it</tspan><tspan x="454.674" y="-144">, to </tspan><tspan x="483.661" y="-144">allow</tspan><tspan x="528.587" y="-144">Profinet</tspan><tspan x="593.854" y="-144">and </tspan><tspan x="626.687" y="-144">MARTe</tspan><tspan x="684.514" y="-144">access.</tspan><tspan x="912.233" y="0">MARTe</tspan><tspan x="970.06" y="0">signals</tspan><tspan x="1025.23" y="0">are </tspan>located<tspan x="1114.12" y="0">in the </tspan>same<tspan x="912.233" y="23">bank, </tspan>shifted<tspan x="1010.7" y="23">. </tspan><tspan x="1019.53" y="23">Signal</tspan><tspan x="1068.53" y="23">coordinates</tspan><tspan x="1161.92" y="23">are </tspan><tspan x="912.233" y="45">expressed</tspan><tspan x="992.873" y="45">as</tspan><tspan x="1013.37" y="45">subslot</tspan><tspan x="1072.28" y="45">and offset from </tspan><tspan x="912.233" y="68">the </tspan><tspan x="941.9" y="68">subslot</tspan><tspan x="1000.81" y="68">start.</tspan><tspan x="912.233" y="90">Subslot</tspan><tspan x="972.307" y="90">can be </tspan>seen<tspan x="1066.32" y="90">as</tspan><tspan x="1086.82" y="90">a </tspan><tspan x="1099.99" y="90">further</tspan><tspan x="1158.15" y="90">signal</tspan><tspan x="912.233" y="112">container, from the </tspan><tspan x="1062.11" y="112">MARTe</tspan><tspan x="1119.93" y="112">point of </tspan><tspan x="912.233" y="135">view</tspan>.<tspan x="912.233" y="157">The </tspan>MARTe<tspan x="1002.56" y="157">side </tspan><tspan x="1037.56" y="157">half</tspan><tspan x="1070.56" y="157">is</tspan><tspan x="1086.39" y="157">located</tspan><tspan x="1146.53" y="157">just </tspan><tspan x="912.233" y="180">after the </tspan>Profinet<tspan x="1047.86" y="180">half</tspan>.<tspan x="912.233" y="202">Only</tspan><tspan x="951.4" y="202">MARTe</tspan><tspan x="1009.23" y="202">knows</tspan><tspan x="1061.99" y="202">the </tspan>real<tspan x="1124.74" y="202">data </tspan><tspan x="912.233" y="224">representation</tspan><tspan x="1024.83" y="224">.</tspan></text><path d="M720.5 231.334C720.5 228.112 723.112 225.5 726.333 225.5L860.667 225.5C863.888 225.5 866.5 228.112 866.5 231.334L866.5 254.667C866.5 257.888 863.888 260.5 860.667 260.5L726.333 260.5C723.112 260.5 720.5 257.888 720.5 254.667Z" stroke="#507E32" stroke-width="1.33333" stroke-miterlimit="8" fill="#70AD47" fill-rule="evenodd"/><text fill="#FFFFFF" font-family="Calibri,Calibri_MSFontService,sans-serif" font-weight="400" font-size="24" transform="translate(758.328 250)">Signal1</text><path d="M722.5 270.333C722.5 267.112 725.112 264.5 728.333 264.5L863.667 264.5C866.888 264.5 869.5 267.112 869.5 270.333L869.5 293.667C869.5 296.888 866.888 299.5 863.667 299.5L728.333 299.5C725.112 299.5 722.5 296.888 722.5 293.667Z" stroke="#507E32" stroke-width="1.33333" stroke-miterlimit="8" fill="#70AD47" fill-rule="evenodd"/><text fill="#FFFFFF" font-family="Calibri,Calibri_MSFontService,sans-serif" font-weight="400" font-size="24" transform="translate(758.977 289)">SignalN</text><path d="M720.5 322.334C720.5 319.112 723.112 316.5 726.333 316.5L860.667 316.5C863.888 316.5 866.5 319.112 866.5 322.334L866.5 345.667C866.5 348.888 863.888 351.5 860.667 351.5L726.333 351.5C723.112 351.5 720.5 348.888 720.5 345.667Z" stroke="#507E32" stroke-width="1.33333" stroke-miterlimit="8" fill="#70AD47" fill-rule="evenodd"/><text fill="#FFFFFF" font-family="Calibri,Calibri_MSFontService,sans-serif" font-weight="400" font-size="24" transform="translate(758.328 341)">Signal1</text><path d="M720.5 361.334C720.5 358.112 723.112 355.5 726.333 355.5L860.667 355.5C863.888 355.5 866.5 358.112 866.5 361.334L866.5 384.667C866.5 387.888 863.888 390.5 860.667 390.5L726.333 390.5C723.112 390.5 720.5 387.888 720.5 384.667Z" stroke="#507E32" stroke-width="1.33333" stroke-miterlimit="8" fill="#70AD47" fill-rule="evenodd"/><text fill="#FFFFFF" font-family="Calibri,Calibri_MSFontService,sans-serif" font-weight="400" font-size="24" transform="translate(756.661 380)">SignalN</text><path d="M722.5 452.167C722.5 449.037 725.037 446.5 728.167 446.5L863.833 446.5C866.963 446.5 869.5 449.037 869.5 452.167L869.5 474.833C869.5 477.963 866.963 480.5 863.833 480.5L728.167 480.5C725.037 480.5 722.5 477.963 722.5 474.833Z" stroke="#507E32" stroke-width="1.33333" stroke-miterlimit="8" fill="#70AD47" fill-rule="evenodd"/><text fill="#FFFFFF" font-family="Calibri,Calibri_MSFontService,sans-serif" font-weight="400" font-size="24" transform="translate(760.643 471)">Signal1</text><path d="M722.5 491.333C722.5 488.112 725.112 485.5 728.333 485.5L863.667 485.5C866.888 485.5 869.5 488.112 869.5 491.333L869.5 514.667C869.5 517.888 866.888 520.5 863.667 520.5L728.333 520.5C725.112 520.5 722.5 517.888 722.5 514.667Z" stroke="#507E32" stroke-width="1.33333" stroke-miterlimit="8" fill="#70AD47" fill-rule="evenodd"/><text fill="#FFFFFF" font-family="Calibri,Calibri_MSFontService,sans-serif" font-weight="400" font-size="24" transform="translate(758.977 510)">SignalN</text><path d="M720.5 541.334C720.5 538.112 723.112 535.5 726.333 535.5L860.667 535.5C863.888 535.5 866.5 538.112 866.5 541.334L866.5 564.667C866.5 567.888 863.888 570.5 860.667 570.5L726.333 570.5C723.112 570.5 720.5 567.888 720.5 564.667Z" stroke="#507E32" stroke-width="1.33333" stroke-miterlimit="8" fill="#70AD47" fill-rule="evenodd"/><text fill="#FFFFFF" font-family="Calibri,Calibri_MSFontService,sans-serif" font-weight="400" font-size="24" transform="translate(758.328 560)">Signal1</text><path d="M720.5 580.334C720.5 577.112 723.112 574.5 726.333 574.5L860.667 574.5C863.888 574.5 866.5 577.112 866.5 580.334L866.5 603.667C866.5 606.888 863.888 609.5 860.667 609.5L726.333 609.5C723.112 609.5 720.5 606.888 720.5 603.667Z" stroke="#507E32" stroke-width="1.33333" stroke-miterlimit="8" fill="#70AD47" fill-rule="evenodd"/><text fill="#FFFFFF" font-family="Calibri,Calibri_MSFontService,sans-serif" font-weight="400" font-size="24" transform="translate(756.661 599)">SignalN</text><path d="M673 150 673 698.174" stroke="#5B9BD5" stroke-width="2" stroke-miterlimit="8" fill="none" fill-rule="evenodd"/><path d="M526.667 224 715.883 224 715.883 226 526.667 226ZM528 229 520 225 528 221ZM714.55 221 722.55 225 714.55 229Z" fill="#ED7D31"/><path d="M526.667 315 715.883 315 715.883 317 526.667 317ZM528 320 520 316 528 312ZM714.55 312 722.55 316 714.55 320Z" fill="#ED7D31"/><path d="M526.667 445 715.883 445 715.883 447 526.667 447ZM528 450 520 446 528 442ZM714.55 442 722.55 446 714.55 450Z" fill="#ED7D31"/><path d="M524.667 534 713.883 534 713.883 536 524.667 536ZM526 539 518 535 526 531ZM712.55 531 720.55 535 712.55 539Z" fill="#ED7D31"/><path d="M720.5 624.334C720.5 621.664 722.664 619.5 725.333 619.5L861.667 619.5C864.336 619.5 866.5 621.664 866.5 624.334L866.5 643.667C866.5 646.336 864.336 648.5 861.667 648.5L725.333 648.5C722.664 648.5 720.5 646.336 720.5 643.667Z" stroke="#AE5A21" stroke-width="1.33333" stroke-miterlimit="8" fill="#ED7D31" fill-rule="evenodd"/><text fill="#FFFFFF" font-family="Calibri,Calibri_MSFontService,sans-serif" font-weight="400" font-size="19" transform="translate(778.911 639)">LED<tspan fill="#000000" x="169.588" y="-30">Three </tspan><tspan fill="#000000" x="217.674" y="-30">additional</tspan><tspan fill="#000000" x="298.508" y="-30">signals</tspan><tspan fill="#000000" x="353.674" y="-30">are </tspan><tspan fill="#000000" x="382.428" y="-30">placed</tspan><tspan fill="#000000" x="436.761" y="-30">at</tspan><tspan fill="#000000" x="169.588" y="-7">the </tspan><tspan fill="#000000" font-weight="700" x="199.254" y="-7">output</tspan><tspan fill="#000000" x="256.421" y="-7">heap end. </tspan><tspan fill="#000000" x="336.421" y="-7">They</tspan><tspan fill="#000000" x="377.301" y="-7">are </tspan><tspan fill="#000000" x="406.055" y="-7">directly</tspan><tspan fill="#000000" x="169.588" y="15">driven</tspan><tspan fill="#000000" x="221.908" y="15">by </tspan><tspan fill="#000000" x="244.314" y="15">their</tspan><tspan fill="#000000" x="284.814" y="15">corresponding</tspan><tspan fill="#000000" x="398.248" y="15">events </tspan><tspan fill="#000000" x="169.588" y="38">raising</tspan><tspan fill="#000000" x="223.541" y="38">from the </tspan><tspan fill="#000000" x="293.908" y="38">adapter</tspan><tspan fill="#000000" x="351.581" y="38">. (</tspan><tspan fill="#000000" x="366.081" y="38">Alarm</tspan><tspan fill="#000000" x="415.748" y="38">is</tspan><tspan fill="#000000" x="169.588" y="60">greyed</tspan><tspan fill="#000000" x="225.494" y="60">as</tspan><tspan fill="#000000" x="245.994" y="60">currently</tspan><tspan fill="#000000" x="318.741" y="60">not</tspan><tspan fill="#000000" x="348.908" y="60">implemented</tspan><tspan fill="#000000" x="450.701" y="60">).</tspan></text><path d="M720.5 655.334C720.5 652.664 722.664 650.5 725.333 650.5L861.667 650.5C864.336 650.5 866.5 652.664 866.5 655.334L866.5 674.667C866.5 677.336 864.336 679.5 861.667 679.5L725.333 679.5C722.664 679.5 720.5 677.336 720.5 674.667Z" stroke="#AE5A21" stroke-width="1.33333" stroke-miterlimit="8" fill="#ED7D31" fill-rule="evenodd"/><text fill="#FFFFFF" font-family="Calibri,Calibri_MSFontService,sans-serif" font-weight="400" font-size="19" transform="translate(768.021 670)">READY</text><path d="M720.5 687.334C720.5 684.664 722.664 682.5 725.333 682.5L861.667 682.5C864.336 682.5 866.5 684.664 866.5 687.334L866.5 706.667C866.5 709.336 864.336 711.5 861.667 711.5L725.333 711.5C722.664 711.5 720.5 709.336 720.5 706.667Z" stroke="#787878" stroke-width="1.33333" stroke-miterlimit="8" fill="#A5A5A5" fill-rule="evenodd"/><text fill="#FFFFFF" font-family="Calibri,Calibri_MSFontService,sans-serif" font-weight="400" font-size="19" transform="translate(765.328 702)">ALARM</text><path d="M480.5 655.334C480.5 652.664 482.664 650.5 485.334 650.5L621.667 650.5C624.336 650.5 626.5 652.664 626.5 655.334L626.5 674.667C626.5 677.336 624.336 679.5 621.667 679.5L485.334 679.5C482.664 679.5 480.5 677.336 480.5 674.667Z" stroke="#787878" stroke-width="1.33333" stroke-miterlimit="8" fill="#A5A5A5" fill-rule="evenodd"/><text fill="#FFFFFF" font-family="Calibri,Calibri_MSFontService,sans-serif" font-weight="400" font-size="19" transform="translate(507.947 670)">ALARM ACK<tspan fill="#000000" x="-486.289" y="-71">The </tspan><tspan fill="#000000" x="-453.789" y="-71">alarm</tspan><tspan fill="#000000" x="-405.956" y="-71">acknowledge</tspan><tspan fill="#000000" x="-302.016" y="-71">input </tspan><tspan fill="#000000" x="-257.683" y="-71">is</tspan><tspan fill="#000000" x="-241.849" y="-71">placed</tspan><tspan fill="#000000" x="-486.289" y="-48">at</tspan><tspan fill="#000000" x="-466.963" y="-48">the </tspan><tspan fill="#000000" font-weight="700" x="-437.296" y="-48">input</tspan><tspan fill="#000000" x="-391.963" y="-48">heap end. </tspan><tspan fill="#000000" x="-311.963" y="-48">It</tspan><tspan fill="#000000" x="-296.796" y="-48">drives </tspan><tspan fill="#000000" x="-486.289" y="-26">directly</tspan><tspan fill="#000000" x="-425.369" y="-26">the </tspan><tspan fill="#000000" x="-395.703" y="-26">adapter</tspan><tspan fill="#000000" x="-331.983" y="-26">to trigger the </tspan><tspan fill="#000000" x="-486.289" y="-3">alarm</tspan><tspan fill="#000000" x="-438.456" y="-3">acknowledgement</tspan><tspan fill="#000000" x="-294.356" y="-3">processing </tspan><tspan fill="#000000" x="-486.289" y="19">chain. (</tspan><tspan fill="#000000" x="-430.956" y="19">Greyed</tspan><tspan fill="#000000" x="-372.049" y="19">as</tspan><tspan fill="#000000" x="-351.549" y="19">currently</tspan><tspan fill="#000000" x="-278.803" y="19">not</tspan><tspan fill="#000000" x="-486.289" y="41">implemented</tspan><tspan fill="#000000" x="-384.496" y="41">)</tspan></text><path d="M326.507 661.167 473.35 664.237 473.336 664.903 326.493 661.833ZM472.093 660.543 480.008 664.709 471.926 668.541Z" fill="#4472C4"/><path d="M866.617 633.188 933.072 658.182 932.837 658.806 866.383 633.812ZM933.115 654.281 939.194 660.841 930.298 661.769Z" fill="#4472C4"/><path d="M0.0188065-0.332802 66.057 3.39899 66.0194 4.0646-0.0188065 0.332802ZM64.9327-0.337059 72.6943 4.10793 64.4813 7.6502Z" fill="#4472C4" transform="matrix(1 0 0 -1 866.5 664.608)"/><path d="M0.146817-0.299259 66.856 32.4284 66.5623 33.0269-0.146817 0.299259ZM67.2739 28.5492 72.6943 35.6639 63.7503 35.7314Z" fill="#4472C4" transform="matrix(1 0 0 -1 866.5 696.164)"/><text font-family="Calibri,Calibri_MSFontService,sans-serif" font-weight="700" font-size="19" transform="translate(702.239 169)">MARTe2<tspan font-weight="400" x="68.54" y="0">side</tspan><tspan x="-160.464" y="-1">Profinet</tspan><tspan font-weight="400" x="-93.6511" y="-1">side</tspan><tspan x="249.274" y="-27">MARTe2</tspan><tspan font-weight="400" x="317.814" y="-27">side start = </tspan><tspan font-weight="400" x="249.274" y="-4">Profinet</tspan><tspan font-weight="400" x="314.541" y="-4">side start + </tspan><tspan font-weight="400" x="402.274" y="-4">half</tspan><tspan font-weight="400" x="435.274" y="-4">bank size</tspan></text><path d="M951.513 166.506 1015.26 166.506 1079.01 166.506 1142.76 166.506 1206.51 166.506 1206.51 167.506 1142.76 167.506 1079.01 167.506 1015.26 167.506 951.513 167.506Z" fill-rule="evenodd"/><text font-family="Calibri,Calibri_MSFontService,sans-serif" font-weight="400" font-size="19" transform="translate(951.513 187)">Two buffers <tspan x="92.9067" y="0">guarantee</tspan><tspan x="0" y="23">independence</tspan><tspan x="112.667" y="23">and race </tspan><tspan x="181.953" y="23">avoidance</tspan>.</text></g></svg>