<svg width="1280" height="720" xmlns="http://www.w3.org/2000/svg" xmlns:xlink="http://www.w3.org/1999/xlink" overflow="hidden"><defs><clipPath id="clip0"><rect x="0" y="0" width="1280" height="720"/></clipPath></defs><g clip-path="url(#clip0)"><rect x="0" y="0" width="1280" height="720" fill="#FFFFFF"/><path d="M32.5001 124C32.5001 109.365 44.3647 97.5001 59.0004 97.5001L255 97.5001C269.635 97.5001 281.5 109.365 281.5 124L281.5 230C281.5 244.635 269.635 256.5 255 256.5L59.0004 256.5C44.3647 256.5 32.5001 244.635 32.5001 230Z" stroke="#2F528F" stroke-width="1.33333" stroke-miterlimit="8" fill="#4472C4" fill-rule="evenodd"/><text fill="#FFFFFF" font-family="Calibri,Calibri_MSFontService,sans-serif" font-weight="400" font-size="24" transform="translate(129.018 141)">Slot 0<tspan x="-53.5133" y="29">(Always </tspan>present)<tspan x="-65.1933" y="58">Also</tspan><tspan x="-18.36" y="58">known</tspan><tspan x="53.0467" y="58">as</tspan><tspan x="79.38" y="58">DAP</tspan><tspan x="-75.6733" y="87">(Device Access Point)</tspan></text><path d="M32.5001 297C32.5001 282.365 44.3647 270.5 59.0004 270.5L255 270.5C269.635 270.5 281.5 282.365 281.5 297L281.5 403C281.5 417.635 269.635 429.5 255 429.5L59.0004 429.5C44.3647 429.5 32.5001 417.635 32.5001 403Z" stroke="#2F528F" stroke-width="1.33333" stroke-miterlimit="8" fill="#4472C4" fill-rule="evenodd"/><text fill="#FFFFFF" font-family="Calibri,Calibri_MSFontService,sans-serif" font-weight="400" font-size="24" transform="translate(129.018 357)">Slot 1</text><path d="M32.5001 522C32.5001 507.365 44.3647 495.5 59.0004 495.5L255 495.5C269.635 495.5 281.5 507.365 281.5 522L281.5 628C281.5 642.635 269.635 654.5 255 654.5L59.0004 654.5C44.3647 654.5 32.5001 642.635 32.5001 628Z" stroke="#2F528F" stroke-width="1.33333" stroke-miterlimit="8" fill="#4472C4" fill-rule="evenodd"/><text fill="#FFFFFF" font-family="Calibri,Calibri_MSFontService,sans-serif" font-weight="400" font-size="24" transform="translate(127.351 582)">Slot N</text><path d="M32.5001 449C32.5001 445.41 35.4102 442.5 39.0001 442.5L275 442.5C278.59 442.5 281.5 445.41 281.5 449L281.5 475C281.5 478.59 278.59 481.5 275 481.5L39.0001 481.5C35.4102 481.5 32.5001 478.59 32.5001 475Z" stroke="#2F528F" stroke-width="1.33333" stroke-miterlimit="8" fill="#4472C4" fill-rule="evenodd"/><text fill="#FFFFFF" font-family="Calibri,Calibri_MSFontService,sans-serif" font-weight="400" font-size="24" transform="translate(140.851 469)">[因</text><path d="M264.5 118.833C264.5 115.336 267.336 112.5 270.833 112.5L434.167 112.5C437.664 112.5 440.5 115.336 440.5 118.833L440.5 144.167C440.5 147.664 437.664 150.5 434.167 150.5L270.833 150.5C267.336 150.5 264.5 147.664 264.5 144.167Z" stroke="#507E32" stroke-width="1.33333" stroke-miterlimit="8" fill="#70AD47" fill-rule="evenodd"/><text fill="#FFFFFF" font-family="Calibri,Calibri_MSFontService,sans-serif" font-weight="400" font-size="24" transform="translate(306.919 139)">Subslot<tspan x="77.2133" y="0">0</tspan></text><path d="M264.5 161C264.5 157.41 267.41 154.5 271 154.5L434 154.5C437.59 154.5 440.5 157.41 440.5 161L440.5 187C440.5 190.59 437.59 193.5 434 193.5L271 193.5C267.41 193.5 264.5 190.59 264.5 187Z" stroke="#507E32" stroke-width="1.33333" stroke-miterlimit="8" fill="#70AD47" fill-rule="evenodd"/><text fill="#FFFFFF" font-family="Calibri,Calibri_MSFontService,sans-serif" font-weight="400" font-size="24" transform="translate(336.025 181)">[因</text><path d="M264.5 204C264.5 200.41 267.41 197.5 271 197.5L434 197.5C437.59 197.5 440.5 200.41 440.5 204L440.5 230C440.5 233.59 437.59 236.5 434 236.5L271 236.5C267.41 236.5 264.5 233.59 264.5 230Z" stroke="#507E32" stroke-width="1.33333" stroke-miterlimit="8" fill="#70AD47" fill-rule="evenodd"/><text fill="#FFFFFF" font-family="Calibri,Calibri_MSFontService,sans-serif" font-weight="400" font-size="24" transform="translate(305.252 224)">Subslot<tspan x="77.2133" y="0">N</tspan></text><path d="M264.5 291C264.5 287.41 267.41 284.5 271 284.5L434 284.5C437.59 284.5 440.5 287.41 440.5 291L440.5 317C440.5 320.59 437.59 323.5 434 323.5L271 323.5C267.41 323.5 264.5 320.59 264.5 317Z" stroke="#507E32" stroke-width="1.33333" stroke-miterlimit="8" fill="#70AD47" fill-rule="evenodd"/><text fill="#FFFFFF" font-family="Calibri,Calibri_MSFontService,sans-serif" font-weight="400" font-size="24" transform="translate(306.919 311)">Subslot<tspan x="77.2133" y="0">0</tspan></text><path d="M264.5 334C264.5 330.41 267.41 327.5 271 327.5L434 327.5C437.59 327.5 440.5 330.41 440.5 334L440.5 360C440.5 363.59 437.59 366.5 434 366.5L271 366.5C267.41 366.5 264.5 363.59 264.5 360Z" stroke="#507E32" stroke-width="1.33333" stroke-miterlimit="8" fill="#70AD47" fill-rule="evenodd"/><text fill="#FFFFFF" font-family="Calibri,Calibri_MSFontService,sans-serif" font-weight="400" font-size="24" transform="translate(336.025 354)">[因</text><path d="M264.5 377C264.5 373.41 267.41 370.5 271 370.5L434 370.5C437.59 370.5 440.5 373.41 440.5 377L440.5 403C440.5 406.59 437.59 409.5 434 409.5L271 409.5C267.41 409.5 264.5 406.59 264.5 403Z" stroke="#507E32" stroke-width="1.33333" stroke-miterlimit="8" fill="#70AD47" fill-rule="evenodd"/><text fill="#FFFFFF" font-family="Calibri,Calibri_MSFontService,sans-serif" font-weight="400" font-size="24" transform="translate(305.252 397)">Subslot<tspan x="77.2133" y="0">N</tspan></text><path d="M264.5 522C264.5 518.41 267.41 515.5 271 515.5L434 515.5C437.59 515.5 440.5 518.41 440.5 522L440.5 548C440.5 551.59 437.59 554.5 434 554.5L271 554.5C267.41 554.5 264.5 551.59 264.5 548Z" stroke="#507E32" stroke-width="1.33333" stroke-miterlimit="8" fill="#70AD47" fill-rule="evenodd"/><text fill="#FFFFFF" font-family="Calibri,Calibri_MSFontService,sans-serif" font-weight="400" font-size="24" transform="translate(306.919 542)">Subslot<tspan x="77.2133" y="0">0</tspan></text><path d="M264.5 565C264.5 561.41 267.41 558.5 271 558.5L434 558.5C437.59 558.5 440.5 561.41 440.5 565L440.5 591C440.5 594.59 437.59 597.5 434 597.5L271 597.5C267.41 597.5 264.5 594.59 264.5 591Z" stroke="#507E32" stroke-width="1.33333" stroke-miterlimit="8" fill="#70AD47" fill-rule="evenodd"/><text fill="#FFFFFF" font-family="Calibri,Calibri_MSFontService,sans-serif" font-weight="400" font-size="24" transform="translate(336.025 585)">[因</text><path d="M264.5 608C264.5 604.41 267.41 601.5 271 601.5L434 601.5C437.59 601.5 440.5 604.41 440.5 608L440.5 634C440.5 637.59 437.59 640.5 434 640.5L271 640.5C267.41 640.5 264.5 637.59 264.5 634Z" stroke="#507E32" stroke-width="1.33333" stroke-miterlimit="8" fill="#70AD47" fill-rule="evenodd"/><text fill="#FFFFFF" font-family="Calibri,Calibri_MSFontService,sans-serif" font-weight="400" font-size="24" transform="translate(305.252 628)">Subslot<tspan x="77.2133" y="0">N</tspan></text><path d="M498.5 139.334C498.5 128.932 506.932 120.5 517.334 120.5L697.666 120.5C708.068 120.5 716.5 128.932 716.5 139.334L716.5 214.666C716.5 225.068 708.068 233.5 697.666 233.5L517.334 233.5C506.932 233.5 498.5 225.068 498.5 214.666Z" stroke="#AE5A21" stroke-width="1.33333" stroke-miterlimit="8" fill="#ED7D31" fill-rule="evenodd"/><text fill="#FFFFFF" font-family="Calibri,Calibri_MSFontService,sans-serif" font-weight="400" font-size="24" transform="translate(540.856 170)">Module ident<tspan x="-17.5" y="29">Submodule</tspan><tspan x="99" y="29">ident</tspan></text><path d="M484.5 194.5 466.5 194.5 466.5 213.5 448.5 175.5 466.5 137.5 466.5 156.5 484.5 156.5Z" stroke="#BC8C00" stroke-width="1.33333" stroke-miterlimit="8" fill="#FFC000" fill-rule="evenodd"/><path d="M498.5 313.167C498.5 302.858 506.858 294.5 517.167 294.5L697.833 294.5C708.143 294.5 716.5 302.858 716.5 313.167L716.5 387.833C716.5 398.143 708.143 406.5 697.833 406.5L517.167 406.5C506.858 406.5 498.5 398.143 498.5 387.833Z" stroke="#AE5A21" stroke-width="1.33333" stroke-miterlimit="8" fill="#ED7D31" fill-rule="evenodd"/><text fill="#FFFFFF" font-family="Calibri,Calibri_MSFontService,sans-serif" font-weight="400" font-size="24" transform="translate(540.856 343)">Module ident<tspan x="-17.5" y="29">Submodule</tspan><tspan x="99" y="29">ident</tspan></text><path d="M484.5 367.5 466.5 367.5 466.5 386.5 448.5 348.5 466.5 310.5 466.5 329.5 484.5 329.5Z" stroke="#BC8C00" stroke-width="1.33333" stroke-miterlimit="8" fill="#FFC000" fill-rule="evenodd"/><path d="M498.5 542.334C498.5 531.932 506.932 523.5 517.334 523.5L697.666 523.5C708.068 523.5 716.5 531.932 716.5 542.334L716.5 617.666C716.5 628.068 708.068 636.5 697.666 636.5L517.334 636.5C506.932 636.5 498.5 628.068 498.5 617.666Z" stroke="#AE5A21" stroke-width="1.33333" stroke-miterlimit="8" fill="#ED7D31" fill-rule="evenodd"/><text fill="#FFFFFF" font-family="Calibri,Calibri_MSFontService,sans-serif" font-weight="400" font-size="24" transform="translate(540.856 573)">Module ident<tspan x="-17.5" y="29">Submodule</tspan><tspan x="99" y="29">ident</tspan></text><path d="M484.5 597.5 466.5 597.5 466.5 616.5 448.5 578.5 466.5 540.5 466.5 559.5 484.5 559.5Z" stroke="#BC8C00" stroke-width="1.33333" stroke-miterlimit="8" fill="#FFC000" fill-rule="evenodd"/><text font-family="Calibri,Calibri_MSFontService,sans-serif" font-weight="400" font-size="24" transform="translate(783.774 179)">Must match the &lt;<tspan x="172.387" y="0">DeviceAccessPointItem</tspan><tspan x="397.807" y="0">&gt;</tspan><tspan x="0" y="175">Must match the &lt;</tspan><tspan x="172.387" y="175">VirtualSubmoduleItem</tspan>&gt;<tspan x="0" y="406">Must match the &lt;</tspan><tspan x="172.387" y="406">VirtualSubmoduleItem</tspan>&gt;</text></g></svg>