<svg width="1280" height="720" xmlns="http://www.w3.org/2000/svg" xmlns:xlink="http://www.w3.org/1999/xlink" overflow="hidden"><defs><clipPath id="clip0"><rect x="0" y="0" width="1280" height="720"/></clipPath></defs><g clip-path="url(#clip0)"><rect x="0" y="0" width="1280" height="720" fill="#FFFFFF"/><text fill="#384887" font-family="Consolas,Consolas_MSFontService,sans-serif" font-weight="400" font-size="21" transform="translate(41.5131 181)">ProfinetDeviceLed<tspan x="210" y="0">=</tspan><tspan x="233.333" y="0">{</tspan><tspan x="46.6667" y="26">Type</tspan><tspan x="105" y="26">=</tspan><tspan x="128.333" y="26">uint8</tspan><tspan x="46.6667" y="51">NumberOfElements</tspan><tspan x="245" y="51">=</tspan><tspan x="268.333" y="51">1</tspan><tspan x="46.6667" y="77">NumberOfDimensions</tspan><tspan x="268.333" y="77">=</tspan><tspan x="291.667" y="77">0</tspan><tspan x="0" y="103">}</tspan><tspan x="0" y="154">ProfinetDeviceReady</tspan><tspan x="233.333" y="154">=</tspan><tspan x="256.667" y="154">{</tspan><tspan x="46.6667" y="179">Type</tspan><tspan x="105" y="179">=</tspan><tspan x="128.333" y="179">uint8</tspan><tspan x="46.6667" y="205">NumberOfElements</tspan><tspan x="245" y="205">=</tspan><tspan x="268.333" y="205">1</tspan><tspan x="46.6667" y="231">NumberOfDimensions</tspan><tspan x="268.333" y="231">=</tspan><tspan x="291.667" y="231">0</tspan><tspan x="0" y="256">}</tspan><tspan fill="#333333" font-family="Segoe UI,Segoe UI_MSFontService,sans-serif" font-size="24" x="0" y="-79">Two </tspan><tspan fill="#333333" font-family="Segoe UI,Segoe UI_MSFontService,sans-serif" font-size="24" x="48.9333" y="-79">ancillary</tspan><tspan fill="#333333" font-family="Segoe UI,Segoe UI_MSFontService,sans-serif" font-size="24" x="142.893" y="-79">signals</tspan><tspan fill="#333333" font-family="Segoe UI,Segoe UI_MSFontService,sans-serif" font-size="24" x="221.227" y="-79">are </tspan><tspan fill="#333333" font-family="Segoe UI,Segoe UI_MSFontService,sans-serif" font-size="24" x="260.413" y="-79">available</tspan><tspan fill="#333333" font-family="Segoe UI,Segoe UI_MSFontService,sans-serif" font-size="24" x="352.147" y="-79">: LED and Ready. </tspan><tspan fill="#333333" font-family="Segoe UI,Segoe UI_MSFontService,sans-serif" font-size="24" x="531.327" y="-79">They</tspan><tspan fill="#333333" font-family="Segoe UI,Segoe UI_MSFontService,sans-serif" font-size="24" x="587.993" y="-79">give</tspan><tspan fill="#333333" font-family="Segoe UI,Segoe UI_MSFontService,sans-serif" font-size="24" x="638.353" y="-79">indications</tspan><tspan fill="#333333" font-family="Segoe UI,Segoe UI_MSFontService,sans-serif" font-size="24" x="759.187" y="-79">about</tspan><tspan fill="#333333" font-family="Segoe UI,Segoe UI_MSFontService,sans-serif" font-size="24" x="827.687" y="-79">the </tspan><tspan fill="#333333" font-family="Segoe UI,Segoe UI_MSFontService,sans-serif" font-size="24" x="868.353" y="-79">Profinet</tspan><tspan fill="#333333" font-family="Segoe UI,Segoe UI_MSFontService,sans-serif" font-size="24" x="957.44" y="-79">status.</tspan></text><rect x="32" y="156" width="333" height="146" stroke="#4472C4" stroke-width="4" stroke-linejoin="round" stroke-miterlimit="10" fill="none"/><rect x="32" y="310" width="333" height="146" stroke="#ED7D31" stroke-width="4" stroke-linejoin="round" stroke-miterlimit="10" fill="none"/><text font-family="Calibri,Calibri_MSFontService,sans-serif" font-weight="400" font-size="19" transform="translate(684.47 212)">Profinet<tspan x="65.2667" y="0">LED output </tspan><tspan x="154.1" y="0">signal</tspan><tspan x="197.767" y="0">. Can be 0 </tspan><tspan x="276.6" y="0">–</tspan><tspan x="290.1" y="0">1. Can be </tspan><tspan x="0" y="23">controlled</tspan><tspan x="81.54" y="23">from the </tspan><tspan x="151.907" y="23">Profinet</tspan><tspan x="217.173" y="23">Master or Engineering </tspan><tspan x="0" y="45">tool.</tspan><tspan x="0" y="114">MARTe</tspan><tspan x="57.8267" y="114">startup </tspan><tspan x="116.727" y="114">has</tspan><tspan x="147.06" y="114">different</tspan><tspan x="216.993" y="114">timings</tspan><tspan x="276.993" y="114">from </tspan>Profinet<tspan x="378.793" y="114">. </tspan><tspan x="0" y="137">Profinet</tspan><tspan x="65.2667" y="137">may</tspan><tspan x="101.42" y="137">not</tspan><tspan x="131.587" y="137">be ready (or </tspan>become<tspan x="293.187" y="137">no </tspan><tspan x="317.02" y="137">longer</tspan><tspan x="369.7" y="137">ready </tspan><tspan x="0" y="159">during</tspan><tspan x="53.3333" y="159">operations</tspan>) <tspan x="144.78" y="159">while</tspan><tspan x="190.113" y="159">MARTe2 </tspan>is<tspan x="273.273" y="159">running.</tspan><tspan x="0" y="182">When</tspan><tspan x="49.8333" y="182">the </tspan><tspan x="79.5" y="182">signal</tspan><tspan x="127.333" y="182">is</tspan><tspan x="143.167" y="182">high (1) the </tspan><tspan x="234.833" y="182">Profinet</tspan><tspan x="300.1" y="182">stack </tspan>is<tspan x="358.667" y="182">running </tspan><tspan x="0" y="204">and </tspan><tspan x="32.8333" y="204">updating</tspan><tspan x="104.66" y="204">the I/O bank. </tspan>When<tspan x="258.493" y="204">low, </tspan>instead:<tspan x="0" y="226">-</tspan><tspan x="30" y="226">Profinet</tspan><tspan x="95.2667" y="226">is</tspan><tspan x="111.1" y="226">in the </tspan>early<tspan x="200.933" y="226">connection setup stages;</tspan><tspan x="0" y="249">-</tspan><tspan x="30" y="249">Profinet</tspan><tspan x="95.2667" y="249">became</tspan><tspan x="159.447" y="249">no </tspan><tspan x="183.28" y="249">longer</tspan><tspan x="235.96" y="249">available</tspan><tspan x="307.213" y="249">due to </tspan><tspan x="30" y="271">connection </tspan><tspan x="118.847" y="271">problems</tspan><tspan x="194.547" y="271">(</tspan><tspan x="200.213" y="271">timeouts</tspan>, network <tspan x="344.773" y="271">errors</tspan>).<tspan x="0" y="316">While</tspan><tspan x="48.6667" y="316">the library </tspan><tspan x="131.213" y="316">always</tspan><tspan x="186.153" y="316">tries</tspan><tspan x="224.153" y="316">to re</tspan><tspan x="259.893" y="316">-</tspan><tspan x="265.56" y="316">establish</tspan><tspan x="336.96" y="316">the </tspan><tspan x="0" y="338">connection (with the ready </tspan>signal<tspan x="257.1" y="338">consequentially</tspan><tspan x="0" y="361">going</tspan><tspan x="45.7067" y="361">from 0 </tspan><tspan x="100.073" y="361">-</tspan><tspan x="105.74" y="361">&gt; 1), </tspan>signals<tspan x="198.407" y="361">may</tspan><tspan x="234.56" y="361">represent</tspan><tspan x="312.393" y="361">stale</tspan><tspan x="352.46" y="361">(</tspan><tspan x="358.127" y="361">old</tspan>) <tspan x="0" y="383">values</tspan><tspan x="48.06" y="383">.</tspan><tspan x="0" y="428">Ready </tspan><tspan x="50.6733" y="428">signal</tspan><tspan x="98.5067" y="428">gives</tspan><tspan x="140.827" y="428">an </tspan>indication<tspan x="243.167" y="428">about</tspan><tspan x="292.167" y="428">the connection </tspan><tspan x="0" y="450">status. Downstream </tspan>GAMs<tspan x="206.033" y="450">can </tspan>implement<tspan x="323.707" y="450">preferred</tspan><tspan x="0" y="473">logic</tspan><tspan x="39.3333" y="473">to account for </tspan>signal<tspan x="197.433" y="473">unavailability</tspan><tspan x="297.12" y="473">.</tspan></text><path d="M675.836 241.143 372.15 230.076 372.174 229.41 675.86 240.476ZM373.349 233.789 365.5 229.5 373.64 225.794Z" fill="#4472C4"/><path d="M675.729 501.795 371.613 386.181 371.85 385.558 675.966 501.172ZM371.557 390.082 365.5 383.5 374.399 382.604Z" fill="#4472C4"/></g></svg>