<svg width="1280" height="720" xmlns="http://www.w3.org/2000/svg" xmlns:xlink="http://www.w3.org/1999/xlink" overflow="hidden"><defs><clipPath id="clip0"><rect x="0" y="0" width="1280" height="720"/></clipPath><linearGradient x1="330.5" y1="532.5" x2="330.5" y2="475.5" gradientUnits="userSpaceOnUse" spreadMethod="reflect" id="fill1"><stop offset="0" stop-color="#9B9B9B"/><stop offset="0.5" stop-color="#8E8E8E"/><stop offset="1" stop-color="#797979"/></linearGradient></defs><g clip-path="url(#clip0)"><rect x="0" y="0" width="1280" height="720" fill="#FFFFFF"/><rect x="32.5001" y="72.5001" width="673" height="401" stroke="#4472C4" stroke-linejoin="round" stroke-miterlimit="10" fill="none"/><text fill="#384887" font-family="Consolas,Consolas_MSFontService,sans-serif" font-weight="400" font-size="27" transform="translate(41.5131 102)">InputInt32A<tspan x="176" y="0">=</tspan><tspan x="205.333" y="0">{</tspan><tspan font-weight="700" x="58.6667" y="32">Type</tspan><tspan font-weight="700" x="132" y="32">=</tspan><tspan font-weight="700" x="161.333" y="32">int32</tspan><tspan x="58.6667" y="64">NumberOfElements</tspan><tspan x="308" y="64">=</tspan><tspan x="337.333" y="64">1</tspan><tspan x="58.6667" y="96">NumberOfDimensions</tspan><tspan x="337.333" y="96">=</tspan><tspan x="366.667" y="96">0</tspan><tspan fill="#7F6000" font-weight="700" x="58.6667" y="128">Slot</tspan><tspan x="132" y="128">=</tspan><tspan x="161.333" y="128">2</tspan><tspan fill="#843C0C" font-weight="700" x="58.6667" y="160">Subslot</tspan><tspan x="176" y="160">=</tspan><tspan x="205.333" y="160">1</tspan><tspan fill="#385723" font-weight="700" x="58.6667" y="192">Offset</tspan><tspan x="161.333" y="192">=</tspan><tspan x="190.667" y="192">5</tspan><tspan x="58.6667" y="224">Direction</tspan><tspan x="205.333" y="224">=</tspan><tspan x="234.667" y="224">0</tspan><tspan x="58.6667" y="256">NeedsSwapping</tspan><tspan x="264" y="256">=</tspan><tspan x="293.333" y="256">1</tspan><tspan x="0" y="288">}</tspan><tspan fill="#000000" font-family="Calibri,Calibri_MSFontService,sans-serif" font-size="24" x="5.5" y="509">&lt;</tspan><tspan fill="#000000" font-family="Calibri,Calibri_MSFontService,sans-serif" font-weight="700" font-size="24" x="17.5" y="509">IOData</tspan><tspan fill="#000000" font-family="Calibri,Calibri_MSFontService,sans-serif" font-size="24" x="86.7133" y="509">&gt;</tspan><tspan fill="#000000" font-family="Calibri,Calibri_MSFontService,sans-serif" font-size="24" x="96" y="538">&lt;</tspan><tspan fill="#385723" font-family="Calibri,Calibri_MSFontService,sans-serif" font-weight="700" font-size="24" x="108" y="538">Input</tspan><tspan fill="#BFBFBF" font-family="Calibri,Calibri_MSFontService,sans-serif" font-size="24" x="166.667" y="538">Consistency="All items consistency"</tspan><tspan fill="#000000" font-family="Calibri,Calibri_MSFontService,sans-serif" font-size="24" x="515.653" y="538">&gt;</tspan><tspan fill="#000000" font-family="Calibri,Calibri_MSFontService,sans-serif" font-size="24" x="192" y="567">&lt;</tspan><tspan fill="#000000" font-family="Calibri,Calibri_MSFontService,sans-serif" font-weight="700" font-size="24" x="204" y="567">DataItem</tspan><tspan fill="#2F5597" font-family="Calibri,Calibri_MSFontService,sans-serif" font-weight="700" font-size="24" x="302.087" y="567">DataType</tspan><tspan fill="#2F5597" font-family="Calibri,Calibri_MSFontService,sans-serif" font-weight="700" font-size="24" x="396.047" y="567">="Integer32" </tspan><tspan fill="#BFBFBF" font-family="Calibri,Calibri_MSFontService,sans-serif" font-size="24" x="529.44" y="567">TextId</tspan><tspan fill="#BFBFBF" font-family="Calibri,Calibri_MSFontService,sans-serif" font-size="24" x="587.687" y="567">="TOK_Input_DataItem_Int32"</tspan><tspan fill="#000000" font-family="Calibri,Calibri_MSFontService,sans-serif" font-size="24" x="887.347" y="567">/&gt;</tspan></text><path d="M369.5 504 350 504 350 532.5 311 532.5 311 504 291.5 504 330.5 475.5Z" stroke="#000000" stroke-width="0.666667" stroke-miterlimit="8" fill="url(#fill1)" fill-rule="evenodd"/><rect x="96" y="142" width="335" height="68" stroke="#4472C4" stroke-width="6" stroke-linejoin="round" stroke-miterlimit="10" fill="none"/><rect x="96" y="210" width="227" height="91" stroke="#ED7D31" stroke-width="6" stroke-linejoin="round" stroke-miterlimit="10" fill="none"/><text font-family="Calibri,Calibri_MSFontService,sans-serif" font-weight="400" font-size="19" transform="translate(779.078 94)">Usually<tspan x="59.5" y="0">Profinet</tspan><tspan x="124.767" y="0">variables</tspan><tspan x="196.827" y="0">(field </tspan><tspan x="240.16" y="0">variables</tspan><tspan x="308.053" y="0">) are </tspan><tspan font-weight="700" x="346.64" y="0">single </tspan><tspan font-weight="700" x="0" y="23">typed</tspan><tspan font-weight="700" x="48.8334" y="23">values</tspan><tspan x="98.06" y="23">, </tspan><tspan x="106.893" y="23">NoE</tspan><tspan x="142.06" y="23">and </tspan><tspan x="174.893" y="23">NoD</tspan><tspan x="212.393" y="23">can stay 1/0</tspan></text><path d="M0.0305319-0.331932 331.566 30.1635 331.505 30.8274-0.0305319 0.331932ZM330.574 26.3901 338.174 31.106 329.841 34.3565Z" fill="#4472C4" transform="matrix(-1 0 0 1 769.674 111.5)"/><text font-family="Calibri,Calibri_MSFontService,sans-serif" font-weight="400" font-size="19" transform="translate(779.078 233)">The MARTe2 <tspan x="99.8267" y="0">signal</tspan><tspan x="147.66" y="0">is</tspan><tspan x="163.493" y="0">«</tspan>contained<tspan x="248.607" y="0">» </tspan><tspan x="262.273" y="0">into</tspan><tspan x="296.42" y="0">a </tspan><tspan x="309.587" y="0">Profinet</tspan><tspan fill="#7F6000" font-weight="700" x="0" y="23">Slot</tspan>/<tspan fill="#843C0C" font-weight="700" x="37.1667" y="23">Subslot</tspan><tspan x="98.74" y="23">after a byte </tspan><tspan fill="#385723" font-weight="700" x="190.567" y="23">Offset</tspan></text><path d="M0.00375664-0.333312 440.035 4.62612 440.028 5.29274-0.00375664 0.333312ZM438.741 0.944635 446.696 5.03454 438.651 8.94413Z" fill="#4472C4" transform="matrix(-1 0 0 1 770.196 250.5)"/><rect x="96" y="300" width="227" height="34" stroke="#70AD47" stroke-width="6" stroke-linejoin="round" stroke-miterlimit="10" fill="none"/><text font-family="Calibri,Calibri_MSFontService,sans-serif" font-weight="400" font-size="19" transform="translate(779.078 331)">The direction<tspan x="104.587" y="0">of the </tspan><tspan x="153.92" y="0">signal</tspan><tspan x="201.753" y="0">(MARTe2 point</tspan><tspan x="314.74" y="0">-</tspan><tspan x="320.407" y="0">of</tspan>-<tspan x="341.573" y="0">view</tspan><tspan x="376.98" y="0">)</tspan><tspan fill="#1F4E79" font-weight="700" x="0" y="23">0 </tspan><tspan fill="#1F4E79" font-weight="700" x="13.6667" y="23">–</tspan><tspan fill="#1F4E79" font-weight="700" x="27.1667" y="23">Input</tspan><tspan fill="#1F4E79" font-weight="700" x="0" y="45">1 </tspan><tspan fill="#1F4E79" font-weight="700" x="13.6667" y="45">-</tspan><tspan fill="#1F4E79" font-weight="700" x="23.5" y="45">Output</tspan></text><path d="M770.164 359.936 330.104 318.457 330.167 317.794 770.227 359.273ZM331.089 322.233 323.5 317.5 331.84 314.268Z" fill="#4472C4"/><rect x="96" y="334" width="260" height="34" stroke="#000000" stroke-width="6" stroke-linejoin="round" stroke-miterlimit="10" fill="none"/><text font-family="Calibri,Calibri_MSFontService,sans-serif" font-weight="400" font-size="19" transform="translate(780.035 442)">Profinet<tspan x="65.2667" y="0">uses</tspan><tspan x="103.267" y="0">Big </tspan>Endian<tspan x="186.933" y="0">byte </tspan>ordering<tspan x="293.813" y="0">while</tspan><tspan x="339.147" y="0">MARTe2 </tspan><tspan x="0" y="23">can be </tspan><tspan x="54.0134" y="23">run</tspan><tspan x="84.3467" y="23">on </tspan><tspan x="108.18" y="23">MultiArch</tspan><tspan x="187.907" y="23">which</tspan><tspan x="237.24" y="23">can be </tspan><tspan x="291.253" y="23">BE</tspan><tspan x="314.753" y="23">or LE. </tspan><tspan fill="#C00000" font-weight="700" x="361.087" y="23">Always </tspan><tspan fill="#C00000" font-weight="700" x="0" y="45">enable</tspan><tspan fill="#C00000" font-weight="700" x="52.5" y="45">, </tspan><tspan fill="#C00000" font-weight="700" x="61.5" y="45">unless</tspan><tspan fill="#C00000" font-weight="700" x="114.667" y="45">downstream GAM </tspan><tspan fill="#C00000" font-weight="700" x="260.22" y="45">knows</tspan><tspan fill="#C00000" font-weight="700" x="314.567" y="45">how</tspan><tspan fill="#C00000" font-weight="700" x="352.533" y="45">to </tspan><tspan fill="#C00000" font-weight="700" x="0" y="68">handle the BE </tspan><tspan fill="#C00000" font-weight="700" x="111.167" y="68">binary</tspan><tspan fill="#C00000" font-weight="700" x="164.747" y="68">blob.</tspan><tspan fill="#C00000" font-weight="700" x="0" y="90">Only</tspan><tspan fill="#C00000" font-weight="700" x="40.3333" y="90">2, 4 and 8 byte size </tspan><tspan fill="#C00000" font-weight="700" x="190.92" y="90">types</tspan><tspan fill="#C00000" font-weight="700" x="237.253" y="90">are </tspan><tspan fill="#C00000" font-weight="700" x="266.38" y="90">affected</tspan><tspan fill="#C00000" font-weight="700" x="329.56" y="90">.</tspan><tspan fill="#203864" font-weight="700" x="0" y="112">Uses</tspan><tspan fill="#203864" font-weight="700" x="40.6667" y="112">internal</tspan><tspan fill="#203864" font-weight="700" x="105.433" y="112">MARTe2 To/From </tspan><tspan fill="#203864" font-weight="700" x="243.8" y="112">BigEndian</tspan><tspan fill="#203864" font-weight="700" x="320.8" y="112">, so in BE </tspan><tspan fill="#203864" font-weight="700" x="0" y="135">archs</tspan><tspan fill="#203864" font-weight="700" x="45.0667" y="135">simply</tspan><tspan fill="#203864" font-weight="700" x="100.067" y="135">does</tspan><tspan fill="#203864" font-weight="700" x="141.067" y="135">nothing</tspan><tspan fill="#203864" font-weight="700" x="201.067" y="135">. In LE </tspan><tspan fill="#203864" font-weight="700" x="250.567" y="135">archs</tspan><tspan fill="#203864" font-weight="700" x="291.467" y="135">, standard byte </tspan><tspan fill="#203864" font-weight="700" x="0" y="157">swapping </tspan><tspan fill="#203864" font-weight="700" x="77.8734" y="157">occurs</tspan><tspan fill="#203864" font-weight="700" x="131.647" y="157">(</tspan><tspan fill="#203864" font-weight="700" x="137.48" y="157">see</tspan><tspan fill="#203864" font-weight="700" x="167.813" y="157">MARTe2 </tspan><tspan fill="#203864" font-weight="700" x="236.353" y="157">Endianity.h</tspan><tspan fill="#203864" font-weight="700" x="323.213" y="157">)</tspan></text><path d="M770.633 526.996 362.529 357.367 362.784 356.751 770.889 526.38ZM362.352 361.264 356.5 354.5 365.423 353.877Z" fill="#4472C4"/><path d="M0-1 530.392-1 530.508 220.14 528.508 220.141 528.393 0.000525791 529.393 1 0 1ZM533.378 218.466 530.087 226.783 525.408 219.16Z" fill="#FFC000" transform="matrix(-1.83697e-16 -1 -1 1.83697e-16 507.783 652.087)"/><text font-family="Calibri,Calibri_MSFontService,sans-serif" font-weight="700" font-size="24" transform="translate(268.763 584)">GSDML Side</text></g></svg>