<svg width="1280" height="720" xmlns="http://www.w3.org/2000/svg" xmlns:xlink="http://www.w3.org/1999/xlink" overflow="hidden"><defs><clipPath id="clip0"><rect x="0" y="0" width="1280" height="720"/></clipPath></defs><g clip-path="url(#clip0)"><rect x="0" y="0" width="1280" height="720" fill="#FFFFFF"/><rect x="32.5001" y="94.5001" width="673" height="514" stroke="#4472C4" stroke-width="1.33333" stroke-miterlimit="8" fill="#FFFFFF"/><rect x="99.5001" y="136.5" width="644" height="427" stroke="#70AD47" stroke-width="1.33333" stroke-miterlimit="8" fill="#FFFFFF"/><rect x="164.5" y="253.5" width="622" height="276" stroke="#ED7D31" stroke-width="1.33333" stroke-miterlimit="8" fill="#FFFFFF"/><text fill="#384887" font-family="Consolas,Consolas_MSFontService,sans-serif" font-weight="400" font-size="32" transform="translate(41.513 129)">Slots<tspan x="106" y="0">=</tspan><tspan x="141.333" y="0">{</tspan><tspan x="70.6667" y="39">Slot0</tspan><tspan x="176.667" y="39">=</tspan><tspan x="212" y="39">{</tspan><tspan font-weight="700" x="70.6667" y="77">SlotNumber</tspan><tspan font-weight="700" x="265" y="77">=</tspan><tspan font-weight="700" x="300.333" y="77">0</tspan><tspan x="70.6667" y="115">Subslots</tspan><tspan x="229.667" y="115">=</tspan><tspan x="265" y="115">{</tspan><tspan x="141.333" y="154">Subslot1</tspan><tspan x="300.333" y="154">=</tspan><tspan x="335.667" y="154">{</tspan><tspan font-weight="700" x="212" y="192">SubslotNumber</tspan><tspan font-weight="700" x="459.333" y="192">=</tspan><tspan font-weight="700" x="494.667" y="192">1</tspan><tspan x="212" y="231">DeviceAccessPoint</tspan><tspan x="530" y="231">=</tspan><tspan x="565.333" y="231">1</tspan><tspan font-weight="700" x="212" y="269">Expected</tspan><tspan fill="#C55A11" x="353.333" y="269">DataDirection</tspan><tspan x="600.667" y="269">=</tspan><tspan x="636" y="269">1</tspan><tspan font-weight="700" x="212" y="307">Expected</tspan><tspan fill="#548235" font-weight="700" x="353.333" y="307">InputSize</tspan><tspan x="530" y="307">=</tspan><tspan x="565.333" y="307">0</tspan><tspan font-weight="700" x="212" y="346">Expected</tspan><tspan fill="#BF9000" font-weight="700" x="353.333" y="346">OutputSize</tspan><tspan x="547.667" y="346">=</tspan><tspan x="583" y="346">0</tspan><tspan x="141.333" y="384">}</tspan><tspan x="88.3333" y="423">}</tspan><tspan x="0" y="461">}</tspan><tspan fill="#000000" font-family="Calibri,Calibri_MSFontService,sans-serif" font-weight="700" font-size="19" x="792.435" y="-70">Slots</tspan><tspan fill="#000000" font-family="Calibri,Calibri_MSFontService,sans-serif" font-size="19" x="834.102" y="-70">section</tspan><tspan fill="#000000" font-family="Calibri,Calibri_MSFontService,sans-serif" font-size="19" x="893.102" y="-70">matches the device slot </tspan><tspan fill="#000000" font-family="Calibri,Calibri_MSFontService,sans-serif" font-size="19" x="1076.28" y="-70">profile</tspan></text><path d="M0.0798527-0.323627 112.564 27.431 112.404 28.0783-0.0798527 0.323627ZM112.148 23.5517 118.957 29.3517 110.231 31.3188Z" fill="#4472C4" transform="matrix(-1 0 0 1 824.457 64.5001)"/><text font-family="Calibri,Calibri_MSFontService,sans-serif" font-weight="400" font-size="19" transform="translate(833.948 114)">Each<tspan x="39.6933" y="0">slots </tspan><tspan x="79.0266" y="0">is</tspan><tspan x="94.86" y="0">identified</tspan><tspan x="172.02" y="0">by the </tspan><tspan font-weight="700" x="224.093" y="0">SlotNumber</tspan><tspan x="321.76" y="0">attribute</tspan><tspan x="0" y="23">and </tspan><tspan x="32.8333" y="23">contains</tspan><tspan x="100.78" y="23">1:N </tspan><tspan x="131.447" y="23">Subslots</tspan></text><path d="M0.0234771-0.332506 74.7649 4.94473 74.718 5.60974-0.0234771 0.332506ZM73.6931 1.19326 81.3915 5.74677 73.1296 9.17339Z" fill="#4472C4" transform="matrix(-1 0 0 1 824.892 131.5)"/><text font-family="Calibri,Calibri_MSFontService,sans-serif" font-weight="400" font-size="19" transform="translate(833.948 246)">Each<tspan x="39.6933" y="0">subslots</tspan><tspan x="105.933" y="0">is</tspan><tspan x="121.767" y="0">identified</tspan><tspan x="198.927" y="0">by the </tspan><tspan font-weight="700" x="251" y="0">SubslotNumber</tspan><tspan x="0" y="23">attribute</tspan><tspan x="67.1933" y="23">. The </tspan><tspan x="108.527" y="23">subslot</tspan><tspan x="167.433" y="23">is</tspan><tspan x="183.267" y="23">the </tspan><tspan x="212.933" y="23">effective</tspan><tspan x="282.44" y="23">container for the </tspan><tspan x="0" y="45">module</tspan><tspan x="62.1666" y="45">data. </tspan><tspan x="0" y="68">The </tspan><tspan font-weight="700" x="32.5" y="68">DeviceAccessPoint</tspan><tspan x="184.6" y="68">attribute</tspan><tspan x="255.96" y="68">must be 1 </tspan>if<tspan x="349.42" y="68">referring</tspan><tspan x="0" y="90">to a DAP..</tspan><tspan fill="#C55A11" font-weight="700" x="0" y="112">ExpectedDataDirection</tspan><tspan x="182.213" y="112">can be</tspan><tspan fill="#384887" font-family="Consolas,Consolas_MSFontService,sans-serif" x="0" y="135">0</tspan><tspan fill="#384887" font-family="Consolas,Consolas_MSFontService,sans-serif" x="20.6666" y="135">-</tspan><tspan fill="#384887" font-family="Consolas,Consolas_MSFontService,sans-serif" x="41.3333" y="135">No</tspan><tspan fill="#384887" font-family="Consolas,Consolas_MSFontService,sans-serif" x="72.3333" y="135">Input</tspan><tspan fill="#384887" font-family="Consolas,Consolas_MSFontService,sans-serif" x="134.333" y="135">Output</tspan><tspan fill="#384887" font-family="Consolas,Consolas_MSFontService,sans-serif" x="0" y="157">1</tspan><tspan fill="#384887" font-family="Consolas,Consolas_MSFontService,sans-serif" x="20.6666" y="157">-</tspan><tspan fill="#384887" font-family="Consolas,Consolas_MSFontService,sans-serif" x="41.3333" y="157">Input</tspan><tspan fill="#384887" font-family="Consolas,Consolas_MSFontService,sans-serif" x="103.333" y="157">Only</tspan><tspan fill="#384887" font-family="Consolas,Consolas_MSFontService,sans-serif" x="0" y="180">2</tspan><tspan fill="#384887" font-family="Consolas,Consolas_MSFontService,sans-serif" x="20.6666" y="180">-</tspan><tspan fill="#384887" font-family="Consolas,Consolas_MSFontService,sans-serif" x="41.3333" y="180">Output</tspan><tspan fill="#384887" font-family="Consolas,Consolas_MSFontService,sans-serif" x="113.667" y="180">Only</tspan><tspan fill="#384887" font-family="Consolas,Consolas_MSFontService,sans-serif" x="0" y="202">3</tspan><tspan fill="#384887" font-family="Consolas,Consolas_MSFontService,sans-serif" x="20.6666" y="202">-</tspan><tspan fill="#384887" font-family="Consolas,Consolas_MSFontService,sans-serif" x="41.3333" y="202">Combined</tspan><tspan fill="#384887" font-family="Consolas,Consolas_MSFontService,sans-serif" x="134.333" y="202">Input/Output</tspan><tspan fill="#548235" font-weight="700" x="0" y="224">ExpectedInputSize</tspan><tspan x="146.093" y="224">and </tspan><tspan fill="#BF9000" font-weight="700" x="178.927" y="224">ExpectedOutputSize</tspan><tspan x="339.187" y="224">(</tspan><tspan x="344.853" y="224">both</tspan><tspan x="0" y="247">expressed</tspan><tspan x="80.64" y="247">in byte) </tspan>represent<tspan x="220.44" y="247">the size of the input and </tspan><tspan x="0" y="269">output and must be set </tspan><tspan x="181.693" y="269">accordingly</tspan><tspan x="272.12" y="269">to GSDML file.</tspan></text><path d="M824.439 398.98 787.874 260.032 788.519 259.863 825.083 398.811ZM784.668 262.255 786.5 253.5 792.404 260.219Z" fill="#4472C4"/><rect x="249.5" y="370.5" width="146" height="117" stroke="#4472C4" stroke-linejoin="round" stroke-miterlimit="10" fill="none"/><text font-family="Calibri,Calibri_MSFontService,sans-serif" font-weight="400" font-size="19" transform="translate(47.0782 655)">Means<tspan x="55.6667" y="0">that</tspan><tspan x="91.16" y="0">MARTe2 </tspan><tspan font-weight="700" x="158.487" y="0">expects</tspan><tspan x="221.36" y="0">specified</tspan><tspan x="293.36" y="0">input/output/</tspan><tspan x="399.54" y="0">direction</tspan><tspan x="471.627" y="0">for the data in the slot. </tspan><tspan x="649.667" y="0">When</tspan><tspan x="699.5" y="0">the </tspan><tspan x="729.167" y="0">plugging</tspan><tspan x="798.173" y="0">process</tspan><tspan x="860.04" y="0">happens</tspan>, after the connection, the Profinet<tspan x="0" y="23">Master </tspan><tspan x="58.26" y="23">sends</tspan><tspan x="106.093" y="23">the GSDML  + Engineering tool </tspan><tspan x="341.913" y="23">obtained</tspan><tspan x="414.107" y="23">configuration</tspan>. At that<tspan x="580.48" y="23">point, a matching </tspan>between<tspan x="788.307" y="23">expected</tspan><tspan x="861.993" y="23">and </tspan><tspan x="894.827" y="23">configured</tspan><tspan x="980.32" y="23">is</tspan><tspan x="996.153" y="23">done</tspan>, to <tspan x="1063.97" y="23">confirm</tspan><tspan x="1126.71" y="23">the </tspan><tspan x="0" y="45">correct</tspan><tspan x="57.9333" y="45">configuration</tspan><tspan x="159.12" y="45">.</tspan></text><path d="M0.287231-0.169143 86.6435 146.478 86.0691 146.816-0.287231 0.169143ZM89.1265 143.468 89.7391 152.392 82.2329 147.528Z" fill="#4472C4" transform="matrix(1 0 0 -1 232.5 639.892)"/></g></svg>