<svg width="1280" height="720" xmlns="http://www.w3.org/2000/svg" xmlns:xlink="http://www.w3.org/1999/xlink" overflow="hidden"><defs><clipPath id="clip0"><rect x="0" y="0" width="1280" height="720"/></clipPath></defs><g clip-path="url(#clip0)"><rect x="0" y="0" width="1280" height="720" fill="#FFFFFF"/><path d="M342.5 90.0006C342.5 68.1851 360.185 50.5001 382.001 50.5001L539.999 50.5001C561.815 50.5001 579.5 68.1851 579.5 90.0006L579.5 631C579.5 652.815 561.815 670.5 539.999 670.5L382.001 670.5C360.185 670.5 342.5 652.815 342.5 631Z" stroke="#2F528F" stroke-width="1.33333" stroke-miterlimit="8" fill="#4472C4" fill-rule="evenodd"/><text fill="#FFFFFF" font-family="Calibri,Calibri_MSFontService,sans-serif" font-weight="400" font-size="24" transform="translate(365.537 368)">ProfinetDataSource</text><path d="M597.5 63.8334C597.5 57.5742 602.574 52.5001 608.833 52.5001L906.167 52.5001C912.426 52.5001 917.5 57.5742 917.5 63.8334L917.5 109.167C917.5 115.426 912.426 120.5 906.167 120.5L608.833 120.5C602.574 120.5 597.5 115.426 597.5 109.167Z" stroke="#507E32" stroke-width="1.33333" stroke-miterlimit="8" fill="#70AD47" fill-rule="evenodd"/><text fill="#FFFFFF" font-family="Calibri,Calibri_MSFontService,sans-serif" font-weight="400" font-size="24" transform="translate(697.971 94)">DataSourceI</text><path d="M596.5 533.667C596.5 526.947 601.947 521.5 608.667 521.5L904.333 521.5C911.053 521.5 916.5 526.947 916.5 533.667L916.5 582.333C916.5 589.053 911.053 594.5 904.333 594.5L608.667 594.5C601.947 594.5 596.5 589.053 596.5 582.333Z" stroke="#2F528F" stroke-width="1.33333" stroke-miterlimit="8" fill="#4472C4" fill-rule="evenodd"/><text fill="#FFFFFF" font-family="Calibri,Calibri_MSFontService,sans-serif" font-weight="400" font-size="24" transform="translate(677.329 565)">ICyclicNotifiable</text><path d="M595.5 295.5C595.5 288.873 600.873 283.5 607.5 283.5L904.5 283.5C911.127 283.5 916.5 288.873 916.5 295.5L916.5 343.5C916.5 350.127 911.127 355.5 904.5 355.5L607.5 355.5C600.873 355.5 595.5 350.127 595.5 343.5Z" stroke="#AE5A21" stroke-width="1.33333" stroke-miterlimit="8" fill="#ED7D31" fill-rule="evenodd"/><text fill="#FFFFFF" font-family="Calibri,Calibri_MSFontService,sans-serif" font-weight="400" font-size="24" transform="translate(673.214 327)">ITimerEntryPoint</text><path d="M596.5 375.5C596.5 368.873 601.873 363.5 608.5 363.5L904.5 363.5C911.127 363.5 916.5 368.873 916.5 375.5L916.5 423.5C916.5 430.127 911.127 435.5 904.5 435.5L608.5 435.5C601.873 435.5 596.5 430.127 596.5 423.5Z" stroke="#AE5A21" stroke-width="1.33333" stroke-miterlimit="8" fill="#ED7D31" fill-rule="evenodd"/><text fill="#FFFFFF" font-family="Calibri,Calibri_MSFontService,sans-serif" font-weight="400" font-size="24" transform="translate(642.482 407)">IMainThreadEntryPoint</text><path d="M597.5 612.5C597.5 605.873 602.873 600.5 609.5 600.5L905.5 600.5C912.127 600.5 917.5 605.873 917.5 612.5L917.5 660.5C917.5 667.127 912.127 672.5 905.5 672.5L609.5 672.5C602.873 672.5 597.5 667.127 597.5 660.5Z" stroke="#2F528F" stroke-width="1.33333" stroke-miterlimit="8" fill="#4472C4" fill-rule="evenodd"/><text fill="#FFFFFF" font-family="Calibri,Calibri_MSFontService,sans-serif" font-weight="400" font-size="24" transform="translate(639.551 644)">IProfinetEventNotifiable</text><path d="M597.5 138.667C597.5 131.947 602.947 126.5 609.667 126.5L905.333 126.5C912.053 126.5 917.5 131.947 917.5 138.667L917.5 187.333C917.5 194.053 912.053 199.5 905.333 199.5L609.667 199.5C602.947 199.5 597.5 194.053 597.5 187.333Z" stroke="#41719C" stroke-width="1.33333" stroke-miterlimit="8" fill="#5B9BD5" fill-rule="evenodd"/><text fill="#FFFFFF" font-family="Calibri,Calibri_MSFontService,sans-serif" font-weight="400" font-size="24" transform="translate(654.461 170)">ISynchronisableInput</text><path d="M596.5 217.5C596.5 210.873 601.873 205.5 608.5 205.5L904.5 205.5C911.127 205.5 916.5 210.873 916.5 217.5L916.5 265.5C916.5 272.127 911.127 277.5 904.5 277.5L608.5 277.5C601.873 277.5 596.5 272.127 596.5 265.5Z" stroke="#41719C" stroke-width="1.33333" stroke-miterlimit="8" fill="#5B9BD5" fill-rule="evenodd"/><text fill="#FFFFFF" font-family="Calibri,Calibri_MSFontService,sans-serif" font-weight="400" font-size="24" transform="translate(644.71 249)">ISynchronisableOutput</text><path d="M597.5 453.667C597.5 446.947 602.947 441.5 609.667 441.5L905.333 441.5C912.053 441.5 917.5 446.947 917.5 453.667L917.5 502.333C917.5 509.053 912.053 514.5 905.333 514.5L609.667 514.5C602.947 514.5 597.5 509.053 597.5 502.333Z" stroke="#2F528F" stroke-width="1.33333" stroke-miterlimit="8" fill="#4472C4" fill-rule="evenodd"/><text fill="#FFFFFF" font-family="Calibri,Calibri_MSFontService,sans-serif" font-weight="400" font-size="24" transform="translate(611.794 485)">IOperationalSignalsEntryPoint</text><path d="M11.5001 274.834C11.5001 250.349 31.3492 230.5 55.8343 230.5L282.166 230.5C306.651 230.5 326.5 250.349 326.5 274.834L326.5 452.166C326.5 476.651 306.651 496.5 282.166 496.5L55.8343 496.5C31.3492 496.5 11.5001 476.651 11.5001 452.166Z" stroke="#2F528F" stroke-width="1.33333" stroke-miterlimit="8" fill="#4472C4" fill-rule="evenodd"/><text fill="#FFFFFF" font-family="Calibri,Calibri_MSFontService,sans-serif" font-weight="400" font-size="24" transform="translate(33.9322 370)">ProfinetDataSourceAdapter</text><path d="M11.5001 556.834C11.5001 550.574 16.5743 545.5 22.8337 545.5L321.166 545.5C327.426 545.5 332.5 550.574 332.5 556.834L332.5 602.166C332.5 608.426 327.426 613.5 321.166 613.5L22.8337 613.5C16.5743 613.5 11.5001 608.426 11.5001 602.166Z" stroke="#787878" stroke-width="1.33333" stroke-miterlimit="8" fill="#A5A5A5" fill-rule="evenodd"/><text fill="#FFFFFF" font-family="Calibri,Calibri_MSFontService,sans-serif" font-weight="400" font-size="24" transform="translate(96.2176 587)">ILoggerAdapter</text><path d="M936.5 75.334C936.5 61.6186 947.619 50.5001 961.334 50.5001L1232.67 50.5001C1246.38 50.5001 1257.5 61.6186 1257.5 75.334L1257.5 174.666C1257.5 188.382 1246.38 199.5 1232.67 199.5L961.334 199.5C947.619 199.5 936.5 188.382 936.5 174.666Z" stroke="#787878" stroke-width="1.33333" stroke-miterlimit="8" fill="#A5A5A5" fill-rule="evenodd"/><text fill="#FFFFFF" font-family="Calibri,Calibri_MSFontService,sans-serif" font-weight="400" font-size="24" transform="translate(1032.2 103)">MemoryMap<tspan x="-3.56665" y="29">SynchNMutex</tspan><tspan x="6.14001" y="58">InputBroker</tspan></text><path d="M937.5 238.334C937.5 224.619 948.619 213.5 962.334 213.5L1233.67 213.5C1247.38 213.5 1258.5 224.619 1258.5 238.334L1258.5 337.666C1258.5 351.381 1247.38 362.5 1233.67 362.5L962.334 362.5C948.619 362.5 937.5 351.381 937.5 337.666Z" stroke="#787878" stroke-width="1.33333" stroke-miterlimit="8" fill="#A5A5A5" fill-rule="evenodd"/><text fill="#FFFFFF" font-family="Calibri,Calibri_MSFontService,sans-serif" font-weight="400" font-size="24" transform="translate(1033.27 266)">MemoryMap<tspan x="-3.56665" y="29">SynchNMutex</tspan><tspan x="-2.77332" y="58">OutputBroker</tspan></text></g></svg>